<svg xmlns="http://www.w3.org/2000/svg" xmlns:xlink="http://www.w3.org/1999/xlink" width="0" height="0">
<symbol id="star" width="16" height="16" fill="none" xmlns="http://www.w3.org/2000/svg"><g clip-path="url(#a)"><path d="M6.2 4.697 8 1.286l1.8 3.411c.159.302.45.512.785.57l3.8.658-2.688 2.766a1.1 1.1 0 0 0-.3.923l.55 3.818-3.462-1.702a1.1 1.1 0 0 0-.97 0l-3.462 1.702.55-3.818a1.1 1.1 0 0 0-.3-.923L1.614 5.925l3.8-.657a1.1 1.1 0 0 0 .786-.571Zm8.318 1.092ZM3.883 13.515Z" fill="#FFC531" stroke="#FFC531" stroke-width="1.2"/></g><defs><clipPath id="a"><path fill="#fff" d="M0 0h16v16H0z"/></clipPath></defs></symbol>
<symbol id="AC" width="20" height="20" fill="none"><mask fill="#fff"><path d="M9.69 2a4.1 4.1 0 0 0-2.573.906A3.987 3.987 0 0 0 5.71 5.212l-.072.36a.606.606 0 0 0 .256.65.63.63 0 0 0 .968-.41l.074-.357a2.763 2.763 0 0 1 1.086-1.676 2.842 2.842 0 0 1 3.748.367c.468.507.728 1.167.73 1.853a2.75 2.75 0 0 1-.824 1.958 2.836 2.836 0 0 1-1.989.812H.626a.63.63 0 0 0-.442.18.61.61 0 0 0 0 .87.63.63 0 0 0 .442.181h9.063a4.094 4.094 0 0 0 2.808-1.205A3.97 3.97 0 0 0 13.652 6a3.97 3.97 0 0 0-1.154-2.794A4.094 4.094 0 0 0 9.69 2Zm7.185 5.538a3.15 3.15 0 0 0-2.21.902 3.053 3.053 0 0 0-.915 2.175c0 .164.066.32.183.435a.63.63 0 0 0 .884 0 .61.61 0 0 0 .183-.435c0-.365.11-.722.316-1.025.206-.304.499-.54.841-.68a1.902 1.902 0 0 1 2.044.4 1.82 1.82 0 0 1 .406 2.012 1.853 1.853 0 0 1-.69.828c-.309.203-.671.311-1.042.311H.625a.63.63 0 0 0-.442.18.61.61 0 0 0 0 .871.63.63 0 0 0 .442.18h12.188c.414.001.811.164 1.103.453.293.29.457.68.456 1.089-.001.408-.166.799-.46 1.087a1.595 1.595 0 0 1-2.126.082 1.55 1.55 0 0 1-.538-.928l-.007-.037a.609.609 0 0 0-.248-.413.63.63 0 0 0-.983.37.608.608 0 0 0-.001.244l.006.037c.111.65.452 1.24.963 1.665a2.857 2.857 0 0 0 3.82-.151c.528-.52.826-1.224.827-1.96 0-.57-.175-1.098-.474-1.538h1.724a3.15 3.15 0 0 0 2.21-.9c.586-.578.915-1.36.915-2.177 0-.816-.33-1.598-.915-2.175a3.15 3.15 0 0 0-2.21-.902Z"/></mask><path d="M9.69 2a4.1 4.1 0 0 0-2.573.906A3.987 3.987 0 0 0 5.71 5.212l-.072.36a.606.606 0 0 0 .256.65.63.63 0 0 0 .968-.41l.074-.357a2.763 2.763 0 0 1 1.086-1.676 2.842 2.842 0 0 1 3.748.367c.468.507.728 1.167.73 1.853a2.75 2.75 0 0 1-.824 1.958 2.836 2.836 0 0 1-1.989.812H.626a.63.63 0 0 0-.442.18.61.61 0 0 0 0 .87.63.63 0 0 0 .442.181h9.063a4.094 4.094 0 0 0 2.808-1.205A3.97 3.97 0 0 0 13.652 6a3.97 3.97 0 0 0-1.154-2.794A4.094 4.094 0 0 0 9.69 2Zm7.185 5.538a3.15 3.15 0 0 0-2.21.902 3.053 3.053 0 0 0-.915 2.175c0 .164.066.32.183.435a.63.63 0 0 0 .884 0 .61.61 0 0 0 .183-.435c0-.365.11-.722.316-1.025.206-.304.499-.54.841-.68a1.902 1.902 0 0 1 2.044.4 1.82 1.82 0 0 1 .406 2.012 1.853 1.853 0 0 1-.69.828c-.309.203-.671.311-1.042.311H.625a.63.63 0 0 0-.442.18.61.61 0 0 0 0 .871.63.63 0 0 0 .442.18h12.188c.414.001.811.164 1.103.453.293.29.457.68.456 1.089-.001.408-.166.799-.46 1.087a1.595 1.595 0 0 1-2.126.082 1.55 1.55 0 0 1-.538-.928l-.007-.037a.609.609 0 0 0-.248-.413.63.63 0 0 0-.983.37.608.608 0 0 0-.001.244l.006.037c.111.65.452 1.24.963 1.665a2.857 2.857 0 0 0 3.82-.151c.528-.52.826-1.224.827-1.96 0-.57-.175-1.098-.474-1.538h1.724a3.15 3.15 0 0 0 2.21-.9c.586-.578.915-1.36.915-2.177 0-.816-.33-1.598-.915-2.175a3.15 3.15 0 0 0-2.21-.902Z" fill="#101828"/><path d="m9.69 2 .124-4.998L9.75-3H9.69l.001 5ZM5.71 5.212l-4.9-.997-.001.009 4.901.988Zm-.072.36L10.5 6.737l.02-.088.019-.089-4.901-.988Zm1.224.24L1.965 4.805l-.019.093-.015.092 4.931.824Zm.074-.357L2.04 4.445v.001l4.897 1.009Zm5.564.544h5v-.013L12.5 6Zm-2.813 2.77v5h.003l-.002-5ZM0 9.385h-5 5ZM9.688 10v5h.06l.06-.002L9.688 10Zm5.312.615h5-5ZM0 13.077h-5 5Zm12.813.615.01-5h-.01v5Zm-.007 3.077.01-5h-.013l.003 5Zm-1.558-1.294-4.93.834.001.008.002.009 4.927-.851Zm-.007-.037-4.953.681.01.077.013.076 4.93-.834Zm-1.232.201 4.93-.834-.013-.075-.015-.074-4.902.983Zm.006.037-4.93.835.002.008 4.928-.843ZM12.806 18l.002-5h-.003l.001 5Zm2.819-2.77 5 .01v-.01h-5Zm-.474-1.538v-5H5.705l5.312 7.812 4.134-2.812ZM9.69-3A9.1 9.1 0 0 0 3.977-.985l6.28 7.782A.901.901 0 0 1 9.691 7L9.69-3ZM3.977-.985a8.987 8.987 0 0 0-3.167 5.2l9.8 1.994c-.05.245-.182.45-.353.588L3.977-.985ZM.809 4.224l-.073.359L10.54 6.56l.072-.359L.81 4.224Zm-.034.182a5.606 5.606 0 0 0-.071 2.267l9.852-1.712c.103.59.083 1.194-.056 1.776L.775 4.406ZM.704 6.673a5.61 5.61 0 0 0 .828 2.104l8.376-5.463a4.39 4.39 0 0 1 .648 1.647L.704 6.673Zm.828 2.104a5.62 5.62 0 0 0 1.574 1.595L8.682 2.07a4.38 4.38 0 0 1 1.226 1.243L1.532 8.777Zm1.574 1.595c.622.418 1.32.706 2.051.85L7.09 1.411a4.37 4.37 0 0 1 1.593.66l-5.576 8.3Zm2.051.85c.73.144 1.483.142 2.213-.007L5.375 1.416a4.365 4.365 0 0 1 1.714-.005l-1.932 9.811Zm2.213-.007a5.63 5.63 0 0 0 2.046-.864l-5.63-8.264a4.37 4.37 0 0 1 1.589-.67l1.995 9.798Zm2.046-.864a5.62 5.62 0 0 0 1.564-1.605L2.568 3.338a4.38 4.38 0 0 1 1.219-1.251l5.63 8.264Zm1.564-1.605a5.61 5.61 0 0 0 .814-2.11L1.931 4.99a4.39 4.39 0 0 1 .637-1.65l8.412 5.407Zm.78-1.925.074-.358-9.795-2.017-.074.358 9.795 2.017Zm.073-.356a2.237 2.237 0 0 1-.873 1.36L5.083-.266a7.763 7.763 0 0 0-3.044 4.71l9.794 2.02Zm-.873 1.36a2.158 2.158 0 0 1-1.479.404l.973-9.953A7.842 7.842 0 0 0 5.083-.266l5.877 8.09Zm-1.479.404a2.174 2.174 0 0 1-1.386-.694L15.446.756a7.826 7.826 0 0 0-4.992-2.48l-.973 9.953Zm-1.386-.694A2.257 2.257 0 0 1 7.5 6.011l10-.025a7.743 7.743 0 0 0-2.053-5.23l-7.352 6.78ZM7.5 6c0-.617.25-1.192.668-1.604l7.017 7.124A7.749 7.749 0 0 0 17.5 6h-10Zm.668-1.604c.415-.409.962-.626 1.517-.626l.005 10a7.836 7.836 0 0 0 5.495-2.25L8.167 4.395Zm1.52-.626H.624v10h9.063v-10Zm-9.063 0a5.63 5.63 0 0 0-3.95 1.618l7.016 7.125A4.37 4.37 0 0 1 .625 13.77v-10Zm-3.95 1.618A5.61 5.61 0 0 0-5 9.385H5a4.39 4.39 0 0 1-1.309 3.127l-7.016-7.125ZM-5 9.385a5.61 5.61 0 0 0 1.675 3.998l7.016-7.126A4.39 4.39 0 0 1 5 9.385H-5Zm1.675 3.998A5.63 5.63 0 0 0 .625 15V5a4.37 4.37 0 0 1 3.066 1.257l-7.016 7.126ZM.625 15h9.063V5H.624v10Zm9.183-.002a9.094 9.094 0 0 0 6.239-2.683l-7.102-7.04A.906.906 0 0 1 9.567 5l.241 9.997Zm6.239-2.683a8.97 8.97 0 0 0 2.605-6.312L8.652 6c0-.286.114-.544.293-.725l7.102 7.04Zm2.605-6.312A8.969 8.969 0 0 0 16.05-.311L8.945 6.725A1.03 1.03 0 0 1 8.652 6l10 .003ZM16.05-.311a9.094 9.094 0 0 0-6.237-2.687l-.248 9.996a.907.907 0 0 1-.621-.273L16.05-.311Zm.824 2.85a8.15 8.15 0 0 0-5.718 2.338l7.016 7.125a1.85 1.85 0 0 1-1.298.537v-10Zm-5.718 2.338a8.053 8.053 0 0 0-2.407 5.738h10c0 .536-.217 1.033-.577 1.387l-7.016-7.125ZM8.75 10.615a5.61 5.61 0 0 0 1.675 3.998l7.016-7.125a4.39 4.39 0 0 1 1.309 3.127h-10Zm1.675 3.998a5.63 5.63 0 0 0 3.95 1.618v-10a4.37 4.37 0 0 1 3.066 1.257l-7.016 7.125Zm3.95 1.618a5.63 5.63 0 0 0 3.95-1.618l-7.016-7.125a4.37 4.37 0 0 1 3.066-1.257v10Zm3.95-1.618A5.611 5.611 0 0 0 20 10.615H10a4.39 4.39 0 0 1 1.309-3.127l7.016 7.125ZM20 10.615c0 .642-.194 1.262-.547 1.782L11.18 6.782A6.826 6.826 0 0 0 10 10.615h10Zm-.547 1.782c-.352.52-.845.913-1.407 1.143l-3.777-9.26a6.868 6.868 0 0 0-3.09 2.502l8.274 5.615Zm-1.407 1.143a3.098 3.098 0 0 1-1.766.171l1.922-9.813a6.902 6.902 0 0 0-3.933.382l3.777 9.26Zm-1.766.171a3.116 3.116 0 0 1-1.587-.838l7.016-7.126a6.884 6.884 0 0 0-3.507-1.85l-1.922 9.814Zm-1.587-.838c-.443-.436-.753-1.001-.88-1.628l9.802-1.98a6.837 6.837 0 0 0-1.906-3.518l-7.016 7.126Zm-.88-1.628a3.18 3.18 0 0 1 .185-1.862l9.218 3.878a6.82 6.82 0 0 0 .399-3.996l-9.802 1.98Zm.185-1.862a3.147 3.147 0 0 1 1.17-1.41l5.497 8.354a6.853 6.853 0 0 0 2.551-3.066l-9.218-3.878Zm1.17-1.41a3.104 3.104 0 0 1 1.707-.511v10a6.896 6.896 0 0 0 3.79-1.134l-5.496-8.355Zm1.707-.511H.625v10h16.25v-10Zm-16.25 0a5.63 5.63 0 0 0-3.95 1.617l7.016 7.126a4.37 4.37 0 0 1-3.066 1.257v-10Zm-3.95 1.617A5.61 5.61 0 0 0-5 13.077H5a4.39 4.39 0 0 1-1.309 3.128l-7.016-7.126ZM-5 13.077a5.61 5.61 0 0 0 1.675 3.998l7.016-7.126A4.39 4.39 0 0 1 5 13.077H-5Zm1.675 3.998a5.63 5.63 0 0 0 3.95 1.617v-10A4.37 4.37 0 0 1 3.691 9.95l-7.016 7.126Zm3.95 1.617h12.188v-10H.624v10Zm12.178 0a3.425 3.425 0 0 1-2.402-.991l7.03-7.112a6.575 6.575 0 0 0-4.609-1.897l-.02 10Zm-2.402-.991a3.474 3.474 0 0 1-1.03-2.477l10 .02a6.527 6.527 0 0 0-1.94-4.655l-7.03 7.112Zm-1.03-2.477a3.473 3.473 0 0 1 1.04-2.473l7.002 7.14a6.526 6.526 0 0 0 1.959-4.647l-10-.02Zm1.04-2.473a3.425 3.425 0 0 1 2.405-.982l-.02 10a6.575 6.575 0 0 0 4.617-1.878l-7.002-7.14Zm2.392-.982c.786 0 1.559.273 2.178.787l-6.39 7.693a6.595 6.595 0 0 0 4.219 1.52l-.007-10Zm2.178.787a3.45 3.45 0 0 1 1.193 2.067l-9.853 1.703a6.55 6.55 0 0 0 2.27 3.923l6.39-7.693Zm1.196 2.084-.006-.037-9.86 1.669.007.037 9.86-1.669Zm.018.116a5.61 5.61 0 0 0-.751-2.128l-8.568 5.157a4.39 4.39 0 0 1-.588-1.666l9.907-1.363Zm-.751-2.128a5.62 5.62 0 0 0-1.512-1.648l-5.878 8.09a4.38 4.38 0 0 1-1.178-1.285l8.568-5.157Zm-1.512-1.648a5.63 5.63 0 0 0-2.015-.924l-2.299 9.732a4.37 4.37 0 0 1-1.564-.718l5.878-8.09Zm-2.015-.924a5.635 5.635 0 0 0-2.206-.077l1.616 9.868a4.364 4.364 0 0 1-1.709-.06l2.299-9.731ZM9.71 9.979a5.632 5.632 0 0 0-2.071.78l5.295 8.483a4.369 4.369 0 0 1-1.608.605L9.711 9.98Zm-2.071.78a5.62 5.62 0 0 0-1.622 1.535l8.18 5.752c-.34.482-.77.888-1.263 1.196L7.64 10.759Zm-1.622 1.535a5.61 5.61 0 0 0-.9 2.066l9.784 2.07a4.392 4.392 0 0 1-.704 1.616l-8.18-5.752Zm-.9 2.066a5.606 5.606 0 0 0-.012 2.263l9.805-1.967a4.393 4.393 0 0 1-.01 1.773L5.119 14.36Zm-.04 2.114.007.037 9.86-1.67-.006-.036-9.86 1.669Zm.009.045a7.777 7.777 0 0 0 2.692 4.665l6.399-7.685c.395.329.674.799.765 1.334L5.087 16.52Zm2.692 4.665A7.856 7.856 0 0 0 12.807 23l-.002-10c.492 0 .979.17 1.373.499l-6.399 7.685ZM12.804 23a7.84 7.84 0 0 0 5.498-2.244l-7.008-7.133A2.16 2.16 0 0 1 12.807 13l-.004 10Zm5.498-2.244a7.753 7.753 0 0 0 2.323-5.516l-10-.018c.001-.615.25-1.189.668-1.6l7.009 7.134Zm2.323-5.525c0-1.61-.498-3.113-1.339-4.35l-8.27 5.623a2.274 2.274 0 0 1-.391-1.273h10Zm-5.474 3.461h1.724v-10h-1.724v10Zm1.724 0a8.15 8.15 0 0 0 5.718-2.338l-7.016-7.126a1.85 1.85 0 0 1 1.298-.536v10Zm5.718-2.338A8.053 8.053 0 0 0 25 10.615H15c0-.535.217-1.032.577-1.387l7.016 7.126ZM25 10.615c0-2.167-.875-4.23-2.407-5.738l-7.016 7.125A1.947 1.947 0 0 1 15 10.615h10Zm-2.407-5.738a8.15 8.15 0 0 0-5.718-2.339v10a1.85 1.85 0 0 1-1.298-.536l7.016-7.125Z" fill="#101828" mask="url(#a)"/></symbol>
<symbol id="adults" width="20" height="20" fill="none"><path d="M5.667 15.083h-2.75c-.167 0-.25-.083-.334-.166-.083-.084-.166-.25-.083-.417.5-1.417 1.75-2.25 3.167-2.25 1.75 0 3.166-1.5 3.166-3.25S7.417 5.583 5.667 5.583 2.5 7.083 2.5 8.917c0 .833.333 1.666.833 2.25-1.083.583-1.916 1.5-2.416 2.75a2.3 2.3 0 0 0 .333 1.916c.417.584 1 .917 1.667.917h2.75c.5 0 .833-.333.833-.833 0-.5-.333-.834-.833-.834Zm-1.5-6.166c0-.917.666-1.584 1.5-1.584.833 0 1.5.75 1.5 1.584 0 .916-.667 1.583-1.5 1.583-.834 0-1.5-.75-1.5-1.583Z" fill="#101828"/><path d="M19.083 13.417A6.244 6.244 0 0 0 16 10c.75-.667 1.167-1.667 1.167-2.833C17.167 5 15.5 3.25 13.5 3.25c-2 0-3.667 1.75-3.667 3.917C9.833 8.25 10.25 9.25 11 10a6.244 6.244 0 0 0-3.083 3.417c-.417.75-.25 1.583.166 2.25.417.666 1.167 1 1.917 1h6.917c.75 0 1.5-.417 1.916-1 .5-.667.584-1.5.25-2.25ZM11.417 7.25c0-1.25.916-2.25 2-2.25 1.083 0 2 1 2 2.25s-.917 2.25-2 2.25c-1.084 0-2-1.083-2-2.25Zm6 7.5c-.084.083-.25.333-.5.333H10c-.333 0-.5-.25-.5-.333a.711.711 0 0 1-.083-.75c.666-1.75 2.333-2.917 4.083-2.917S16.917 12.25 17.583 14c.084.333-.083.667-.166.75Z" fill="#101828"/></symbol>
<symbol id="automatic" width="20" height="20" fill="none"><path d="M14.167 9.167h1.25a1.25 1.25 0 0 0 0-2.5h-1.25v4.166m0 3.334V17.5H15a1.666 1.666 0 1 0 0-3.333h-.833ZM2.5 4.167a1.667 1.667 0 1 0 3.333 0 1.667 1.667 0 0 0-3.333 0Z" stroke="#101828" stroke-width="1.5" stroke-linecap="round" stroke-linejoin="round"/><path d="M4.167 5.833v2.5A.833.833 0 0 0 5 9.167h2.5m0 0V15a.833.833 0 0 0 .833.833h2.5M7.5 9.167h3.333" stroke="#101828" stroke-width="1.5" stroke-linecap="round" stroke-linejoin="round"/></symbol>
<symbol id="bed" width="20" height="20" fill="none"><path d="M1.875 16.25v-4.375a2.507 2.507 0 0 1 2.5-2.5h11.25a2.507 2.507 0 0 1 2.5 2.5v4.375M15 9.375H3.75V5.312A1.567 1.567 0 0 1 5.313 3.75h9.375a1.567 1.567 0 0 1 1.562 1.563v4.062H15Z" stroke="#101828" stroke-width="1.4" stroke-linecap="round" stroke-linejoin="round"/><path d="M1.875 16.25v-.313A.94.94 0 0 1 2.813 15h14.374a.94.94 0 0 1 .938.938v.312M4.375 9.375V8.75a1.254 1.254 0 0 1 1.25-1.25H8.75A1.254 1.254 0 0 1 10 8.75m0 0v.625m0-.625a1.253 1.253 0 0 1 1.25-1.25h3.125a1.254 1.254 0 0 1 1.25 1.25v.625" stroke="#101828" stroke-width="1.4" stroke-linecap="round" stroke-linejoin="round"/></symbol>
<symbol id="calendar" width="20" height="20" fill="none"><path d="M15.833 3.333H4.167C3.247 3.333 2.5 4.08 2.5 5v11.667c0 .92.746 1.666 1.667 1.666h11.666c.92 0 1.667-.746 1.667-1.666V5c0-.92-.746-1.667-1.667-1.667ZM13.333 1.667V5M6.667 1.667V5M2.5 8.333h15" stroke="#101828" stroke-width="1.5" stroke-linecap="round" stroke-linejoin="round"/></symbol>
<symbol id="camper1" width="40" height="28" fill="none"><path d="M2.282 1.575H13.14a.346.346 0 0 0 .243-.099L14.426.46A1.615 1.615 0 0 1 15.561 0h16.465a2.3 2.3 0 0 1 1.904.994l1.973 2.888c.28.41.306.934.068 1.368a1.37 1.37 0 0 1-1.205.704H26.28v.837h4.346a2.87 2.87 0 0 1 2.64 1.702l2.545 5.818 2.23.87c1.19.465 1.959 1.573 1.959 2.824v5.388c0 .804-.67 1.458-1.494 1.458h-2.594C35.611 26.634 34.02 28 32.106 28S28.6 26.634 28.3 24.85H14.122C13.82 26.635 12.228 28 10.315 28c-1.912 0-3.504-1.366-3.806-3.15h-5.18C.595 24.85 0 24.27 0 23.556V3.8c0-1.228 1.023-2.226 2.282-2.226ZM32.106 26.77c1.432 0 2.598-1.137 2.598-2.535 0-1.397-1.166-2.534-2.598-2.534-1.433 0-2.598 1.137-2.598 2.534 0 1.398 1.165 2.535 2.598 2.535Zm-5.826-3.15h2.019l.017-.091.012-.062c.01-.048.022-.096.034-.144l.008-.03c.015-.057.031-.113.05-.17.004-.016.01-.032.016-.049a4.18 4.18 0 0 1 .065-.18l.041-.1.03-.066.043-.095.033-.066.048-.09.035-.065.052-.088.038-.062.058-.088.039-.057c.022-.031.044-.062.068-.092l.035-.048a4.466 4.466 0 0 1 .225-.266l.037-.038.084-.087.05-.046a3.456 3.456 0 0 1 .211-.188l.058-.045a4.16 4.16 0 0 1 .141-.107l.085-.059.06-.04c.03-.02.06-.038.091-.057l.06-.036c.033-.02.067-.038.101-.057l.052-.03a4.71 4.71 0 0 1 .148-.073l.011-.005c.054-.026.108-.05.163-.072.017-.008.036-.014.053-.021l.114-.044.065-.023a4.02 4.02 0 0 1 .458-.126l.076-.016a3.637 3.637 0 0 1 .294-.044l.072-.008.125-.01c.02 0 .041-.003.062-.003a3.497 3.497 0 0 1 .378 0c.02 0 .04.002.062.004.041.002.083.005.125.01.024.001.048.005.072.007a3.454 3.454 0 0 1 .37.06 3.79 3.79 0 0 1 .458.126l.065.023.114.044.053.02c.055.023.11.047.163.073l.011.005c.05.024.099.048.147.074l.052.029c.035.018.069.037.102.057l.06.036.09.057.061.04.085.06a2.876 2.876 0 0 1 .141.106l.058.045a5.09 5.09 0 0 1 .211.188l.05.046.084.087.037.038c.04.042.078.086.115.13l.015.018c.032.039.064.077.095.118l.035.048.068.092.039.057.058.088.038.062.051.088.036.065.048.09.033.066c.015.032.03.063.043.095l.03.065a2.467 2.467 0 0 1 .065.164l.041.117.017.05c.017.056.034.112.05.17l.007.03c.012.047.023.095.033.143l.013.062.017.091h2.593a.23.23 0 0 0 .233-.227v-2.578h-.984v-1.23h.984v-1.58c0-.745-.458-1.405-1.167-1.682l-2.36-.92H26.28v8.217Zm0-9.448h8.1l-2.273-5.197a1.61 1.61 0 0 0-1.481-.954H26.28v6.151ZM10.315 26.77c1.433 0 2.598-1.137 2.598-2.535 0-1.397-1.165-2.534-2.598-2.534-.045 0-.089.001-.133.004-1.194.059-2.177.908-2.412 2.02a2.606 2.606 0 0 0-.049.38 2.24 2.24 0 0 0-.003.13c0 1.398 1.165 2.535 2.597 2.535Zm-9.054-7.185h.984v1.23H1.26v2.74c0 .036.03.065.067.065h5.18l.018-.09c.004-.021.007-.043.012-.064.01-.047.02-.094.033-.14l.008-.033c.015-.057.032-.113.05-.17l.017-.05.04-.116.025-.063a5.547 5.547 0 0 1 .07-.167l.043-.093c.01-.023.022-.045.034-.067l.046-.09.037-.065a4.985 4.985 0 0 1 .186-.295l.067-.091.037-.05c.03-.039.06-.077.093-.115l.016-.02c.038-.044.076-.088.115-.13l.038-.04.084-.085.05-.047.077-.073.055-.047.079-.066.058-.047a4.97 4.97 0 0 1 .14-.106c.028-.02.056-.04.085-.058l.06-.041.09-.057.06-.036.102-.057.053-.03c.048-.025.097-.049.146-.072.004-.002.008-.005.013-.006.053-.026.108-.05.162-.072l.054-.021.113-.044.066-.023a3.45 3.45 0 0 1 .105-.034 3.946 3.946 0 0 1 .353-.091l.075-.017a3.62 3.62 0 0 1 .294-.044l.072-.008.126-.01c.02 0 .04-.003.061-.003a3.5 3.5 0 0 1 .378 0c.021 0 .041.002.062.004.042.002.084.005.125.01.024.001.048.005.072.007a3.526 3.526 0 0 1 .188.026l.106.018.076.016a3.79 3.79 0 0 1 .281.07l.072.022c.035.01.07.022.104.034l.066.023.114.044.053.02a3.966 3.966 0 0 1 .321.152l.053.029.102.057.06.036.09.057.061.04.084.06a2.428 2.428 0 0 1 .14.105l.059.047c.027.021.053.044.079.066l.054.047.079.074.049.046.084.086.037.04a4.111 4.111 0 0 1 .225.265l.036.048c.023.03.046.061.067.092l.039.058a3.468 3.468 0 0 1 .148.237l.036.065.047.09.033.066.044.095.029.065c.015.034.028.068.041.102l.024.062c.015.039.028.078.041.118l.017.048c.018.056.034.114.05.17l.006.028c.013.048.024.097.035.146l.011.06.019.093h10.896V5.34c0-.34.282-.616.63-.616h9.117c.015 0 .063 0 .093-.055a.092.092 0 0 0-.006-.105l-1.972-2.887a1.033 1.033 0 0 0-.855-.447H15.56a.346.346 0 0 0-.243.099l-1.043 1.017a1.615 1.615 0 0 1-1.135.459H2.282a1.01 1.01 0 0 0-1.021.996v15.784Z" fill="#101828"/><path d="M4.844 6.298h7.712c.892 0 1.617.708 1.617 1.577v3.588c0 .87-.726 1.577-1.617 1.577H4.843c-.891 0-1.616-.707-1.616-1.577V7.875c0-.87.725-1.577 1.617-1.577Zm-.356 5.165c0 .19.16.347.356.347h7.712a.352.352 0 0 0 .356-.347V7.875c0-.191-.16-.347-.356-.347H4.843a.352.352 0 0 0-.355.347v3.588Z" fill="#101828"/></symbol>
<symbol id="camper2" width="40" height="28" fill="none"><path d="M2.282 1.575H13.14a.346.346 0 0 0 .243-.099L14.426.46A1.615 1.615 0 0 1 15.561 0h16.465a2.3 2.3 0 0 1 1.904.994l1.973 2.888c.28.41.306.934.068 1.368a1.37 1.37 0 0 1-1.205.704H26.28v.837h4.346a2.87 2.87 0 0 1 2.64 1.702l2.545 5.818 2.23.87c1.19.465 1.959 1.573 1.959 2.824v5.388c0 .804-.67 1.458-1.494 1.458h-2.594C35.611 26.634 34.02 28 32.106 28S28.6 26.634 28.3 24.85H14.122C13.82 26.635 12.228 28 10.315 28c-1.912 0-3.504-1.366-3.806-3.15h-5.18C.595 24.85 0 24.27 0 23.556V3.8c0-1.228 1.023-2.226 2.282-2.226ZM32.106 26.77c1.432 0 2.598-1.137 2.598-2.535 0-1.397-1.166-2.534-2.598-2.534-1.433 0-2.598 1.137-2.598 2.534 0 1.398 1.165 2.535 2.598 2.535Zm-5.826-3.15h2.019l.017-.091.012-.062c.01-.048.022-.096.034-.144l.008-.03c.015-.057.031-.113.05-.17.004-.016.01-.032.016-.049a4.18 4.18 0 0 1 .065-.18l.041-.1.03-.066.043-.095.033-.066.048-.09.035-.065.052-.088.038-.062.058-.088.039-.057c.022-.031.044-.062.068-.092l.035-.048a4.466 4.466 0 0 1 .225-.266l.037-.038.084-.087.05-.046a3.456 3.456 0 0 1 .211-.188l.058-.045a4.16 4.16 0 0 1 .141-.107l.085-.059.06-.04c.03-.02.06-.038.091-.057l.06-.036c.033-.02.067-.038.101-.057l.052-.03a4.71 4.71 0 0 1 .148-.073l.011-.005c.054-.026.108-.05.163-.072.017-.008.036-.014.053-.021l.114-.044.065-.023a4.02 4.02 0 0 1 .458-.126l.076-.016a3.637 3.637 0 0 1 .294-.044l.072-.008.125-.01c.02 0 .041-.003.062-.003a3.497 3.497 0 0 1 .378 0c.02 0 .04.002.062.004.041.002.083.005.125.01.024.001.048.005.072.007a3.454 3.454 0 0 1 .37.06 3.79 3.79 0 0 1 .458.126l.065.023.114.044.053.02c.055.023.11.047.163.073l.011.005c.05.024.099.048.147.074l.052.029c.035.018.069.037.102.057l.06.036.09.057.061.04.085.06a2.876 2.876 0 0 1 .141.106l.058.045a5.09 5.09 0 0 1 .211.188l.05.046.084.087.037.038c.04.042.078.086.115.13l.015.018c.032.039.064.077.095.118l.035.048.068.092.039.057.058.088.038.062.051.088.036.065.048.09.033.066c.015.032.03.063.043.095l.03.065a2.467 2.467 0 0 1 .065.164l.041.117.017.05c.017.056.034.112.05.17l.007.03c.012.047.023.095.033.143l.013.062.017.091h2.593a.23.23 0 0 0 .233-.227v-2.578h-.984v-1.23h.984v-1.58c0-.745-.458-1.405-1.167-1.682l-2.36-.92H26.28v8.217Zm0-9.448h8.1l-2.273-5.197a1.61 1.61 0 0 0-1.481-.954H26.28v6.151ZM10.315 26.77c1.433 0 2.598-1.137 2.598-2.535 0-1.397-1.165-2.534-2.598-2.534-.045 0-.089.001-.133.004-1.194.059-2.177.908-2.412 2.02a2.606 2.606 0 0 0-.049.38 2.24 2.24 0 0 0-.003.13c0 1.398 1.165 2.535 2.597 2.535Zm-9.054-7.185h.984v1.23H1.26v2.74c0 .036.03.065.067.065h5.18l.018-.09c.004-.021.007-.043.012-.064.01-.047.02-.094.033-.14l.008-.033c.015-.057.032-.113.05-.17l.017-.05.04-.116.025-.063a5.547 5.547 0 0 1 .07-.167l.043-.093c.01-.023.022-.045.034-.067l.046-.09.037-.065a4.985 4.985 0 0 1 .186-.295l.067-.091.037-.05c.03-.039.06-.077.093-.115l.016-.02c.038-.044.076-.088.115-.13l.038-.04.084-.085.05-.047.077-.073.055-.047.079-.066.058-.047a4.97 4.97 0 0 1 .14-.106c.028-.02.056-.04.085-.058l.06-.041.09-.057.06-.036.102-.057.053-.03c.048-.025.097-.049.146-.072.004-.002.008-.005.013-.006.053-.026.108-.05.162-.072l.054-.021.113-.044.066-.023a3.45 3.45 0 0 1 .105-.034 3.946 3.946 0 0 1 .353-.091l.075-.017a3.62 3.62 0 0 1 .294-.044l.072-.008.126-.01c.02 0 .04-.003.061-.003a3.5 3.5 0 0 1 .378 0c.021 0 .041.002.062.004.042.002.084.005.125.01.024.001.048.005.072.007a3.526 3.526 0 0 1 .188.026l.106.018.076.016a3.79 3.79 0 0 1 .281.07l.072.022c.035.01.07.022.104.034l.066.023.114.044.053.02a3.966 3.966 0 0 1 .321.152l.053.029.102.057.06.036.09.057.061.04.084.06a2.428 2.428 0 0 1 .14.105l.059.047c.027.021.053.044.079.066l.054.047.079.074.049.046.084.086.037.04a4.111 4.111 0 0 1 .225.265l.036.048c.023.03.046.061.067.092l.039.058a3.468 3.468 0 0 1 .148.237l.036.065.047.09.033.066.044.095.029.065c.015.034.028.068.041.102l.024.062c.015.039.028.078.041.118l.017.048c.018.056.034.114.05.17l.006.028c.013.048.024.097.035.146l.011.06.019.093h10.896V5.34c0-.34.282-.616.63-.616h9.117c.015 0 .063 0 .093-.055a.092.092 0 0 0-.006-.105l-1.972-2.887a1.033 1.033 0 0 0-.855-.447H15.56a.346.346 0 0 0-.243.099l-1.043 1.017a1.615 1.615 0 0 1-1.135.459H2.282a1.01 1.01 0 0 0-1.021.996v15.784Z" fill="#101828"/><path d="M17.601 6.298h3.989c.805 0 1.461.64 1.461 1.426v13.165c0 .34-.282.615-.63.615h-5.65a.623.623 0 0 1-.63-.615V7.724c0-.787.654-1.426 1.46-1.426Zm-.2 13.975h4.389V13.04H17.4v7.233Zm0-8.463h4.389V7.723a.198.198 0 0 0-.2-.196H17.6c-.11 0-.2.088-.2.196l.001 4.085Z" fill="#101828"/></symbol>
<symbol id="camper3" width="40" height="28" fill="none"><path d="M2.282 1.575H13.14a.346.346 0 0 0 .243-.099L14.426.46A1.615 1.615 0 0 1 15.561 0h16.465a2.3 2.3 0 0 1 1.904.994l1.973 2.888c.28.41.306.934.068 1.368a1.37 1.37 0 0 1-1.205.704H26.28v.837h4.346a2.87 2.87 0 0 1 2.64 1.702l2.545 5.818 2.23.87c1.19.465 1.959 1.573 1.959 2.824v5.388c0 .804-.67 1.458-1.494 1.458h-2.594C35.611 26.634 34.02 28 32.106 28S28.6 26.634 28.3 24.85H14.122C13.82 26.635 12.228 28 10.315 28c-1.912 0-3.504-1.366-3.806-3.15h-5.18C.595 24.85 0 24.27 0 23.556V3.8c0-1.228 1.023-2.226 2.282-2.226ZM32.106 26.77c1.432 0 2.598-1.137 2.598-2.535 0-1.397-1.166-2.534-2.598-2.534-1.433 0-2.598 1.137-2.598 2.534 0 1.398 1.165 2.535 2.598 2.535Zm-5.826-3.15h2.019l.017-.091.012-.062c.01-.048.022-.096.034-.144l.008-.03c.015-.057.031-.113.05-.17.004-.016.01-.032.016-.049a4.18 4.18 0 0 1 .065-.18l.041-.1.03-.066.043-.095.033-.066.048-.09.035-.065.052-.088.038-.062.058-.088.039-.057c.022-.031.044-.062.068-.092l.035-.048a4.466 4.466 0 0 1 .225-.266l.037-.038.084-.087.05-.046a3.456 3.456 0 0 1 .211-.188l.058-.045a4.16 4.16 0 0 1 .141-.107l.085-.059.06-.04c.03-.02.06-.038.091-.057l.06-.036c.033-.02.067-.038.101-.057l.052-.03a4.71 4.71 0 0 1 .148-.073l.011-.005c.054-.026.108-.05.163-.072.017-.008.036-.014.053-.021l.114-.044.065-.023a4.02 4.02 0 0 1 .458-.126l.076-.016a3.637 3.637 0 0 1 .294-.044l.072-.008.125-.01c.02 0 .041-.003.062-.003a3.497 3.497 0 0 1 .378 0c.02 0 .04.002.062.004.041.002.083.005.125.01.024.001.048.005.072.007a3.454 3.454 0 0 1 .37.06 3.79 3.79 0 0 1 .458.126l.065.023.114.044.053.02c.055.023.11.047.163.073l.011.005c.05.024.099.048.147.074l.052.029c.035.018.069.037.102.057l.06.036.09.057.061.04.085.06a2.876 2.876 0 0 1 .141.106l.058.045a5.09 5.09 0 0 1 .211.188l.05.046.084.087.037.038c.04.042.078.086.115.13l.015.018c.032.039.064.077.095.118l.035.048.068.092.039.057.058.088.038.062.051.088.036.065.048.09.033.066c.015.032.03.063.043.095l.03.065a2.467 2.467 0 0 1 .065.164l.041.117.017.05c.017.056.034.112.05.17l.007.03c.012.047.023.095.033.143l.013.062.017.091h2.593a.23.23 0 0 0 .233-.227v-2.578h-.984v-1.23h.984v-1.58c0-.745-.458-1.405-1.167-1.682l-2.36-.92H26.28v8.217Zm0-9.448h8.1l-2.273-5.197a1.61 1.61 0 0 0-1.481-.954H26.28v6.151ZM10.315 26.77c1.433 0 2.598-1.137 2.598-2.535 0-1.397-1.165-2.534-2.598-2.534-.045 0-.089.001-.133.004-1.194.059-2.177.908-2.412 2.02a2.606 2.606 0 0 0-.049.38 2.24 2.24 0 0 0-.003.13c0 1.398 1.165 2.535 2.597 2.535Zm-9.054-7.185h.984v1.23H1.26v2.74c0 .036.03.065.067.065h5.18l.018-.09c.004-.021.007-.043.012-.064.01-.047.02-.094.033-.14l.008-.033c.015-.057.032-.113.05-.17l.017-.05.04-.116.025-.063a5.547 5.547 0 0 1 .07-.167l.043-.093c.01-.023.022-.045.034-.067l.046-.09.037-.065a4.985 4.985 0 0 1 .186-.295l.067-.091.037-.05c.03-.039.06-.077.093-.115l.016-.02c.038-.044.076-.088.115-.13l.038-.04.084-.085.05-.047.077-.073.055-.047.079-.066.058-.047a4.97 4.97 0 0 1 .14-.106c.028-.02.056-.04.085-.058l.06-.041.09-.057.06-.036.102-.057.053-.03c.048-.025.097-.049.146-.072.004-.002.008-.005.013-.006.053-.026.108-.05.162-.072l.054-.021.113-.044.066-.023a3.45 3.45 0 0 1 .105-.034 3.946 3.946 0 0 1 .353-.091l.075-.017a3.62 3.62 0 0 1 .294-.044l.072-.008.126-.01c.02 0 .04-.003.061-.003a3.5 3.5 0 0 1 .378 0c.021 0 .041.002.062.004.042.002.084.005.125.01.024.001.048.005.072.007a3.526 3.526 0 0 1 .188.026l.106.018.076.016a3.79 3.79 0 0 1 .281.07l.072.022c.035.01.07.022.104.034l.066.023.114.044.053.02a3.966 3.966 0 0 1 .321.152l.053.029.102.057.06.036.09.057.061.04.084.06a2.428 2.428 0 0 1 .14.105l.059.047c.027.021.053.044.079.066l.054.047.079.074.049.046.084.086.037.04a4.111 4.111 0 0 1 .225.265l.036.048c.023.03.046.061.067.092l.039.058a3.468 3.468 0 0 1 .148.237l.036.065.047.09.033.066.044.095.029.065c.015.034.028.068.041.102l.024.062c.015.039.028.078.041.118l.017.048c.018.056.034.114.05.17l.006.028c.013.048.024.097.035.146l.011.06.019.093h10.896V5.34c0-.34.282-.616.63-.616h9.117c.015 0 .063 0 .093-.055a.092.092 0 0 0-.006-.105l-1.972-2.887a1.033 1.033 0 0 0-.855-.447H15.56a.346.346 0 0 0-.243.099l-1.043 1.017a1.615 1.615 0 0 1-1.135.459H2.282a1.01 1.01 0 0 0-1.021.996v15.784Z" fill="#101828"/><path d="M17.601 6.298h3.989c.805 0 1.461.64 1.461 1.426v13.165c0 .34-.282.615-.63.615h-5.65a.623.623 0 0 1-.63-.615V7.724c0-.787.654-1.426 1.46-1.426Zm-.2 13.975h4.389V13.04H17.4v7.233Zm0-8.463h4.389V7.723a.198.198 0 0 0-.2-.196H17.6c-.11 0-.2.088-.2.196v4.085h.001ZM4.844 6.298h7.712c.892 0 1.617.708 1.617 1.577v3.588c0 .87-.726 1.577-1.617 1.577H4.843c-.891 0-1.616-.707-1.616-1.577V7.875c0-.87.725-1.577 1.617-1.577Zm-.356 5.165c0 .19.16.347.356.347h7.712a.352.352 0 0 0 .356-.347V7.875c0-.191-.16-.347-.356-.347H4.843a.352.352 0 0 0-.355.347v3.588Z" fill="#101828"/></symbol>
<symbol id="CD" width="20" height="20" fill="none"><path d="M10 17.5a7.5 7.5 0 1 0 0-15 7.5 7.5 0 0 0 0 15Z" stroke="#101828" stroke-width="1.5"/><path d="M5.417 10A4.583 4.583 0 0 1 10 5.417" stroke="#101828" stroke-width="1.5" stroke-linecap="round"/><path d="M10 12.083a2.083 2.083 0 1 0 0-4.166 2.083 2.083 0 0 0 0 4.166Z" stroke="#101828" stroke-width="1.5"/></symbol>
<symbol id="conditioner" width="20" height="20" fill="none"><g clip-path="url(#a)" stroke="#101828" stroke-width="1.5" stroke-linecap="round" stroke-linejoin="round"><path d="M17.857.714H2.143A1.429 1.429 0 0 0 .714 2.143v7.143a1.429 1.429 0 0 0 1.429 1.428h15.714a1.428 1.428 0 0 0 1.429-1.428V2.143A1.428 1.428 0 0 0 17.857.714Z"/><path d="M15.714 10.714V7.857a1.428 1.428 0 0 0-1.428-1.428H5.714a1.429 1.429 0 0 0-1.428 1.428v2.857m-.715 7.143h.143a2 2 0 0 0 2-2v-1.571m10.715 3.571h-.143a2 2 0 0 1-2-2v-1.571m-4.286 5v-5"/></g><defs><clipPath><path fill="#fff" d="M0 0h20v20H0z"/></clipPath></defs></symbol>
<symbol id="freezer" width="20" height="20" fill="none"><path d="M14.625 1.875H5.379c-.69 0-1.25.56-1.25 1.25v12.742c0 .69.56 1.25 1.25 1.25h9.246c.69 0 1.25-.56 1.25-1.25V3.125c0-.69-.56-1.25-1.25-1.25Z" stroke="#101828" stroke-width="1.3" stroke-linecap="round" stroke-linejoin="round"/><path d="M4.13 8.204h11.74m-9.424-1.6V4.08m0 8.071V9.625m-1.18 7.492v.437a.57.57 0 0 0 .567.571h1.03a.57.57 0 0 0 .57-.57v-.438m5.13 0v.437a.57.57 0 0 0 .57.571h1.034a.57.57 0 0 0 .57-.57v-.438" stroke="#101828" stroke-width="1.3" stroke-linecap="round" stroke-linejoin="round"/></symbol>
<symbol id="gas" width="20" height="20" fill="none"><path d="M15.67 8.745c-.23-.284-.51-.53-.77-.775-.67-.566-1.43-.973-2.07-1.568-1.49-1.379-1.82-3.655-.87-5.402-.95.217-1.78.708-2.489 1.247-2.59 1.964-3.61 5.43-2.39 8.405.04.095.08.19.08.312 0 .208-.15.397-.35.472-.23.095-.47.038-.66-.113a.556.556 0 0 1-.14-.16c-1.13-1.351-1.31-3.287-.55-4.836-1.669 1.284-2.579 3.457-2.449 5.506.06.472.12.945.29 1.417.14.566.41 1.133.71 1.634 1.08 1.634 2.95 2.805 4.96 3.04 2.139.256 4.428-.112 6.068-1.51 1.83-1.568 2.47-4.08 1.53-6.234l-.13-.245c-.21-.435-.77-1.19-.77-1.19Zm-3.16 5.95c-.28.226-.74.472-1.1.566-1.12.378-2.239-.15-2.899-.774 1.19-.264 1.9-1.095 2.11-1.936.17-.756-.15-1.379-.28-2.106-.12-.7-.1-1.294.17-1.946.19.359.39.718.63 1.001.77.945 1.98 1.36 2.24 2.645.04.132.06.264.06.406.03.774-.33 1.624-.93 2.144Z" fill="#101828"/></symbol>
<symbol id="hart" width="24" height="24" fill="none"><path d="M20.84 4.61a5.5 5.5 0 0 0-7.78 0L12 5.67l-1.06-1.06a5.501 5.501 0 1 0-7.78 7.78l1.06 1.06L12 21.23l7.78-7.78 1.06-1.06a5.5 5.5 0 0 0 0-7.78Z" stroke="#101828" stroke-width="2.3" stroke-linecap="round" stroke-linejoin="round"/></symbol>
<symbol id="hob" width="20" height="20" fill="none"><path d="M7.5 4.167h10a.833.833 0 0 1 .833.833v10.833a.833.833 0 0 1-.833.834h-10m0-12.5h-5A.833.833 0 0 0 1.667 5v10.833a.833.833 0 0 0 .833.834h5m0-12.5v12.5" stroke="#101828" stroke-width="1.5"/><path d="M4.583 7.083V8.75m10.834-2.083-5 7.083" stroke="#101828" stroke-width="1.5" stroke-linecap="round" stroke-linejoin="round"/><path d="M5.417 11.25a.833.833 0 1 0-1.667 0 .833.833 0 0 0 1.667 0ZM5.417 13.75a.833.833 0 1 0-1.667 0 .833.833 0 0 0 1.667 0Z" fill="#101828"/></symbol>
<symbol id="kitchen" width="20" height="20" fill="none"><path d="M15.833 12.5v-10c-4.013 3.828-4.185 6.932-4.166 10h4.166Zm0 0v5H15V15M6.667 3.333V17.5m-2.5-14.167v2.5a2.5 2.5 0 1 0 5 0v-2.5" stroke="#101828" stroke-width="1.5" stroke-linecap="round" stroke-linejoin="round"/></symbol>
<symbol id="location" width="18" height="20" fill="none"><g clip-path="url(#a)" stroke="#101828" stroke-width="1.5" stroke-linecap="round" stroke-linejoin="round"><path d="M16.5 8.333c0 5.834-7.5 10.834-7.5 10.834s-7.5-5-7.5-10.834a7.5 7.5 0 0 1 15 0Z"/><path d="M9 10.833a2.5 2.5 0 1 0 0-5 2.5 2.5 0 0 0 0 5Z"/></g><defs><clipPath><path fill="#fff" d="M0 0h18v20H0z"/></clipPath></defs></symbol>
<symbol id="microwave" width="20" height="20" fill="none"><path d="M18.571 3.571H1.43a.714.714 0 0 0-.715.715v11.428a.714.714 0 0 0 .715.715H18.57a.714.714 0 0 0 .715-.715V4.286a.715.715 0 0 0-.715-.715Z" stroke="#101828" stroke-width="1.4" stroke-linecap="round" stroke-linejoin="round"/><path d="M15.714 7.143h.715M15.714 10h.715m-4.286-3.571H4.286a.714.714 0 0 0-.715.714v5.714a.715.715 0 0 0 .715.714h7.857a.714.714 0 0 0 .714-.714V7.143a.714.714 0 0 0-.714-.714Z" stroke="#101828" stroke-width="1.4" stroke-linecap="round" stroke-linejoin="round"/></symbol>
<symbol id="petrol" width="20" height="20" fill="none"><path d="m16.475 6.025.008-.008-3.1-3.1-.883.883 1.758 1.758a2.077 2.077 0 0 0-.731 3.415 2.083 2.083 0 0 0 2.306.435v6.009a.833.833 0 0 1-1.666 0v-3.75A1.667 1.667 0 0 0 12.5 10h-.833V4.167A1.667 1.667 0 0 0 10 2.5H5a1.667 1.667 0 0 0-1.667 1.667V17.5h8.334v-6.25h1.25v4.167a2.083 2.083 0 0 0 4.166 0V7.5c0-.575-.233-1.1-.608-1.475ZM10 11.25v4.583H5V10h5v1.25Zm0-2.917H5V4.167h5v4.166Zm5 0a.833.833 0 1 1 0-1.666.833.833 0 0 1 0 1.666Z" fill="#101828"/></symbol>
<symbol id="radio" width="20" height="20" fill="none"><path d="M1.667 11.667c0-3.143 0-4.715.976-5.69C3.62 5 5.191 5 8.333 5h3.334c3.142 0 4.714 0 5.69.977.976.975.976 2.547.976 5.69 0 3.142 0 4.714-.976 5.69s-2.548.976-5.69.976H8.333c-3.142 0-4.714 0-5.69-.976s-.976-2.548-.976-5.69Z" stroke="#101828" stroke-width="1.3"/><path d="M4.167 9.167A1.667 1.667 0 0 1 5.833 7.5h8.334a1.666 1.666 0 1 1 0 3.333H5.833a1.667 1.667 0 0 1-1.666-1.666Zm3.333 5a1.25 1.25 0 1 1-2.5 0 1.25 1.25 0 0 1 2.5 0Z" stroke="#101828" stroke-width="1.3"/><path d="M12.5 9.583v1.25m-1.667 3.334H15M5.417 5 12.5 1.667" stroke="#101828" stroke-width="1.3" stroke-linecap="round"/></symbol>
<symbol id="route" width="20" height="20" fill="none"><g clip-path="url(#a)" fill-rule="evenodd" clip-rule="evenodd" fill="#101828"><path d="M4.167 2.5a1.667 1.667 0 1 0 0 3.333 1.667 1.667 0 0 0 0-3.333ZM.833 4.167a3.333 3.333 0 1 1 6.667 0 3.333 3.333 0 0 1-6.667 0ZM15.833 14.167a1.667 1.667 0 1 0 0 3.333 1.667 1.667 0 0 0 0-3.333ZM12.5 15.833a3.333 3.333 0 1 1 6.667 0 3.333 3.333 0 0 1-6.667 0Z"/><path d="M8.333 4.167c0-.46.373-.834.834-.834h5.25c2.581 0 3.512 3.378 1.242 4.643l-9.67 5.503A.81.81 0 0 0 6.416 15h4.416a.833.833 0 0 1 0 1.667H6.417c-2.582 0-3.512-3.378-1.242-4.643l9.67-5.503A.81.81 0 0 0 14.417 5h-5.25a.833.833 0 0 1-.834-.833Z"/></g><defs><clipPath><path fill="#fff" d="M0 0h20v20H0z"/></clipPath></defs></symbol>
<symbol id="shower" width="20" height="20" fill="none"><path d="m3.333 3.333 2.084 2.084m5.833 0a4.125 4.125 0 0 0-5.833 5.833M12.5 4.167 4.167 12.5m7.5 1.667v.008m-3.334-.842v.009m2.5-2.509v.009m2.5-2.509v.009m-4.166 8.325v.008m5-5.008v.008m2.5-2.508v.008" stroke="#101828" stroke-width="1.6" stroke-linecap="round" stroke-linejoin="round"/></symbol>
<symbol id="toilet" width="20" height="20" fill="none"><g clip-path="url(#a)"><path d="M15 2.5c1.212 0 2.043 1.03 2.525 2.07.476 1.034.765 2.382.804 3.842l.004.338v7.917a.832.832 0 0 1-.866.833l-.104-.012L15 17.095l-2.363.393a.833.833 0 0 1-.302-.005l-.098-.026L10 16.712l-2.237.745a.833.833 0 0 1-1.09-.691l-.006-.1v-2.439C6.224 14.686 5.67 15 5 15c-1.212 0-2.043-1.03-2.525-2.07-.512-1.113-.808-2.592-.808-4.18 0-1.588.295-3.067.808-4.18.46-.994 1.238-1.977 2.362-2.063L5 2.5h10Zm0 1.667H7.318c.075.133.144.268.206.404.513 1.112.81 2.59.81 4.179v6.76l1.403-.467a.834.834 0 0 1 .526 0l2.305.768 2.295-.383a.836.836 0 0 1 .274 0l1.53.255V8.75c0-1.403-.265-2.633-.656-3.48-.423-.92-.842-1.103-1.011-1.103Zm-10 0c-.17 0-.588.183-1.01 1.102-.393.848-.657 2.078-.657 3.481s.264 2.633.656 3.48c.423.92.842 1.103 1.011 1.103.17 0 .587-.183 1.01-1.102.392-.848.657-2.078.657-3.481s-.265-2.633-.656-3.48C5.587 4.35 5.169 4.166 5 4.166Zm0 2.916c.46 0 .833.746.833 1.667 0 .92-.373 1.667-.833 1.667-.46 0-.833-.746-.833-1.667 0-.92.373-1.667.833-1.667Z" fill="#101828"/></g><defs><clipPath><path fill="#fff" d="M0 0h20v20H0z"/></clipPath></defs></symbol>
<symbol id="tv" width="32" height="32" fill="none"><path d="M24 26H8c-2.216 0-4-1.784-4-4V12c0-2.216 1.784-4 4-4h16c2.216 0 4 1.784 4 4v10c0 2.216-1.784 4-4 4ZM12 30h8M16 8l6-6M16 8l-6-6" stroke="#101828" stroke-width="1.8" stroke-linecap="round" stroke-linejoin="round"/></symbol>
<symbol id="water" width="20" height="20" fill="none"><path d="M15.625 12.5c0 3.452-2.173 5.625-5.625 5.625S4.375 15.952 4.375 12.5c0-3.704 4.032-8.705 5.27-10.152a.469.469 0 0 1 .711 0c1.237 1.447 5.269 6.448 5.269 10.152Z" stroke="#000" stroke-width="1.5" stroke-miterlimit="10"/><path d="M13.438 12.813a2.812 2.812 0 0 1-2.813 2.812" stroke="#000" stroke-width="1.5" stroke-linecap="round" stroke-linejoin="round"/></symbol>
<symbol id="acmask" width="20" height="20" viewBox="0 0 20 20" fill="none" xmlns="http://www.w3.org/2000/svg">
<mask id="path-1-inside-1_11_7901" fill="white">
<path d="M9.69 2C8.7518 2.00021 7.84263 2.32033 7.11706 2.90595C6.39148 3.49157 5.89429 4.30654 5.71 5.21231L5.6375 5.57169C5.61823 5.65208 5.61559 5.73546 5.62974 5.81688C5.64389 5.89829 5.67454 5.97606 5.71986 6.04556C5.76519 6.11507 5.82426 6.17487 5.89355 6.22142C5.96285 6.26797 6.04095 6.30031 6.12321 6.31651C6.20547 6.3327 6.29019 6.33243 6.37234 6.31571C6.45449 6.29898 6.53238 6.26614 6.60137 6.21915C6.67035 6.17216 6.72903 6.11198 6.77389 6.04219C6.81875 5.97239 6.84889 5.89442 6.8625 5.81292L6.93625 5.45477C7.0748 4.7832 7.46155 4.18615 8.02159 3.77926C8.58162 3.37237 9.27509 3.1846 9.96769 3.25232C10.6603 3.32004 11.3027 3.63843 11.7705 4.14581C12.2384 4.6532 12.4983 5.31348 12.5 5.99877C12.5 6.73333 12.2037 7.43782 11.6763 7.95735C11.1489 8.47687 10.4335 8.7689 9.6875 8.76923H0.625C0.45924 8.76923 0.300269 8.83407 0.183058 8.94947C0.0658481 9.06488 0 9.22141 0 9.38462C0 9.54783 0.0658481 9.70435 0.183058 9.81976C0.300269 9.93517 0.45924 10 0.625 10H9.6875C10.7475 9.97443 11.7554 9.54194 12.496 8.79485C13.2367 8.04775 13.6514 7.04521 13.6517 6.0012C13.652 4.95719 13.2379 3.9544 12.4978 3.20686C11.7576 2.45931 10.75 2.02621 9.69 2ZM16.875 7.53846C16.0462 7.53846 15.2513 7.86264 14.6653 8.43967C14.0792 9.01671 13.75 9.79933 13.75 10.6154C13.75 10.7786 13.8158 10.9351 13.9331 11.0505C14.0503 11.1659 14.2092 11.2308 14.375 11.2308C14.5408 11.2308 14.6997 11.1659 14.8169 11.0505C14.9342 10.9351 15 10.7786 15 10.6154C15 10.2502 15.11 9.89332 15.316 9.58972C15.522 9.28612 15.8149 9.04949 16.1575 8.90976C16.5001 8.77003 16.8771 8.73347 17.2408 8.8047C17.6045 8.87594 17.9386 9.05177 18.2008 9.30996C18.463 9.56815 18.6416 9.8971 18.714 10.2552C18.7863 10.6133 18.7492 10.9845 18.6073 11.3219C18.4654 11.6592 18.225 11.9475 17.9167 12.1504C17.6084 12.3533 17.2458 12.4615 16.875 12.4615H0.625C0.45924 12.4615 0.300269 12.5264 0.183058 12.6418C0.0658481 12.7572 0 12.9137 0 13.0769C0 13.2401 0.0658481 13.3967 0.183058 13.5121C0.300269 13.6275 0.45924 13.6923 0.625 13.6923H12.8125C13.2269 13.6931 13.624 13.856 13.9164 14.1451C14.2089 14.4342 14.3727 14.8258 14.3719 15.2338C14.371 15.6419 14.2056 16.0329 13.912 16.3208C13.6184 16.6087 13.2207 16.77 12.8062 16.7692C12.433 16.7695 12.0716 16.6396 11.7863 16.4026C11.501 16.1656 11.3101 15.8368 11.2475 15.4745L11.2413 15.4375C11.23 15.3559 11.2023 15.2773 11.1596 15.2065C11.117 15.1356 11.0603 15.0739 10.993 15.025C10.9257 14.9761 10.849 14.941 10.7677 14.9218C10.6863 14.9025 10.6019 14.8996 10.5194 14.9131C10.4368 14.9266 10.3579 14.9563 10.2872 15.0004C10.2166 15.0445 10.1556 15.1022 10.108 15.1699C10.0604 15.2376 10.0271 15.3141 10.01 15.3947C9.99298 15.4754 9.99254 15.5586 10.0087 15.6394L10.015 15.6763C10.1261 16.326 10.4675 16.916 10.9785 17.3414C11.4895 17.7668 12.1371 18.0001 12.8062 18C13.5528 18.0003 14.2691 17.7089 14.7976 17.1896C15.3261 16.6704 15.6237 15.9659 15.625 15.2308C15.625 14.6609 15.45 14.1317 15.1513 13.6923H16.875C17.7038 13.6923 18.4987 13.3681 19.0847 12.7911C19.6708 12.2141 20 11.4314 20 10.6154C20 9.79933 19.6708 9.01671 19.0847 8.43967C18.4987 7.86264 17.7038 7.53846 16.875 7.53846Z"/>
</mask>
<path d="M9.69 2C8.7518 2.00021 7.84263 2.32033 7.11706 2.90595C6.39148 3.49157 5.89429 4.30654 5.71 5.21231L5.6375 5.57169C5.61823 5.65208 5.61559 5.73546 5.62974 5.81688C5.64389 5.89829 5.67454 5.97606 5.71986 6.04556C5.76519 6.11507 5.82426 6.17487 5.89355 6.22142C5.96285 6.26797 6.04095 6.30031 6.12321 6.31651C6.20547 6.3327 6.29019 6.33243 6.37234 6.31571C6.45449 6.29898 6.53238 6.26614 6.60137 6.21915C6.67035 6.17216 6.72903 6.11198 6.77389 6.04219C6.81875 5.97239 6.84889 5.89442 6.8625 5.81292L6.93625 5.45477C7.0748 4.7832 7.46155 4.18615 8.02159 3.77926C8.58162 3.37237 9.27509 3.1846 9.96769 3.25232C10.6603 3.32004 11.3027 3.63843 11.7705 4.14581C12.2384 4.6532 12.4983 5.31348 12.5 5.99877C12.5 6.73333 12.2037 7.43782 11.6763 7.95735C11.1489 8.47687 10.4335 8.7689 9.6875 8.76923H0.625C0.45924 8.76923 0.300269 8.83407 0.183058 8.94947C0.0658481 9.06488 0 9.22141 0 9.38462C0 9.54783 0.0658481 9.70435 0.183058 9.81976C0.300269 9.93517 0.45924 10 0.625 10H9.6875C10.7475 9.97443 11.7554 9.54194 12.496 8.79485C13.2367 8.04775 13.6514 7.04521 13.6517 6.0012C13.652 4.95719 13.2379 3.9544 12.4978 3.20686C11.7576 2.45931 10.75 2.02621 9.69 2ZM16.875 7.53846C16.0462 7.53846 15.2513 7.86264 14.6653 8.43967C14.0792 9.01671 13.75 9.79933 13.75 10.6154C13.75 10.7786 13.8158 10.9351 13.9331 11.0505C14.0503 11.1659 14.2092 11.2308 14.375 11.2308C14.5408 11.2308 14.6997 11.1659 14.8169 11.0505C14.9342 10.9351 15 10.7786 15 10.6154C15 10.2502 15.11 9.89332 15.316 9.58972C15.522 9.28612 15.8149 9.04949 16.1575 8.90976C16.5001 8.77003 16.8771 8.73347 17.2408 8.8047C17.6045 8.87594 17.9386 9.05177 18.2008 9.30996C18.463 9.56815 18.6416 9.8971 18.714 10.2552C18.7863 10.6133 18.7492 10.9845 18.6073 11.3219C18.4654 11.6592 18.225 11.9475 17.9167 12.1504C17.6084 12.3533 17.2458 12.4615 16.875 12.4615H0.625C0.45924 12.4615 0.300269 12.5264 0.183058 12.6418C0.0658481 12.7572 0 12.9137 0 13.0769C0 13.2401 0.0658481 13.3967 0.183058 13.5121C0.300269 13.6275 0.45924 13.6923 0.625 13.6923H12.8125C13.2269 13.6931 13.624 13.856 13.9164 14.1451C14.2089 14.4342 14.3727 14.8258 14.3719 15.2338C14.371 15.6419 14.2056 16.0329 13.912 16.3208C13.6184 16.6087 13.2207 16.77 12.8062 16.7692C12.433 16.7695 12.0716 16.6396 11.7863 16.4026C11.501 16.1656 11.3101 15.8368 11.2475 15.4745L11.2413 15.4375C11.23 15.3559 11.2023 15.2773 11.1596 15.2065C11.117 15.1356 11.0603 15.0739 10.993 15.025C10.9257 14.9761 10.849 14.941 10.7677 14.9218C10.6863 14.9025 10.6019 14.8996 10.5194 14.9131C10.4368 14.9266 10.3579 14.9563 10.2872 15.0004C10.2166 15.0445 10.1556 15.1022 10.108 15.1699C10.0604 15.2376 10.0271 15.3141 10.01 15.3947C9.99298 15.4754 9.99254 15.5586 10.0087 15.6394L10.015 15.6763C10.1261 16.326 10.4675 16.916 10.9785 17.3414C11.4895 17.7668 12.1371 18.0001 12.8062 18C13.5528 18.0003 14.2691 17.7089 14.7976 17.1896C15.3261 16.6704 15.6237 15.9659 15.625 15.2308C15.625 14.6609 15.45 14.1317 15.1513 13.6923H16.875C17.7038 13.6923 18.4987 13.3681 19.0847 12.7911C19.6708 12.2141 20 11.4314 20 10.6154C20 9.79933 19.6708 9.01671 19.0847 8.43967C18.4987 7.86264 17.7038 7.53846 16.875 7.53846Z" fill="#101828"/>
<path d="M9.69 2L9.8136 -2.99847L9.75126 -3.00001L9.6889 -3L9.69 2ZM5.71 5.21231L0.810378 4.21542L0.808736 4.22356L5.71 5.21231ZM5.6375 5.57169L10.4997 6.73738L10.5208 6.64926L10.5388 6.56044L5.6375 5.57169ZM6.8625 5.81292L1.96525 4.80449L1.94629 4.89657L1.9308 4.98929L6.8625 5.81292ZM6.93625 5.45477L2.03938 4.4445L2.039 4.44634L6.93625 5.45477ZM12.5 5.99877L17.5 5.99877L17.5 5.98632L12.5 5.99877ZM9.6875 8.76923V13.7692L9.68969 13.7692L9.6875 8.76923ZM0 9.38462H-5H0ZM9.6875 10V15H9.7478L9.80808 14.9985L9.6875 10ZM15 10.6154H20H15ZM0 13.0769H-5H0ZM12.8125 13.6923L12.8223 8.69231H12.8125V13.6923ZM12.8062 16.7692L12.8161 11.7692L12.8027 11.7692L12.8062 16.7692ZM11.2475 15.4745L6.31763 16.309L6.31906 16.3174L6.32051 16.3258L11.2475 15.4745ZM11.2413 15.4375L6.28794 16.1192L6.29848 16.1958L6.31138 16.272L11.2413 15.4375ZM10.0087 15.6394L14.9386 14.8049L14.926 14.7303L14.9111 14.6562L10.0087 15.6394ZM10.015 15.6763L5.08512 16.5108L5.08658 16.5193L10.015 15.6763ZM12.8062 18L12.8084 13L12.8053 13L12.8062 18ZM15.625 15.2308L20.625 15.2398V15.2308H15.625ZM15.1513 13.6923V8.69231H5.70532L11.0165 16.5037L15.1513 13.6923ZM9.6889 -3C7.61603 -2.99955 5.59727 -2.29281 3.97674 -0.984856L10.2574 6.79676C10.088 6.93347 9.88758 6.99996 9.6911 7L9.6889 -3ZM3.97674 -0.984856C2.35462 0.324378 1.22882 2.15886 0.810385 4.21542L10.6096 6.20919C10.5598 6.45423 10.4284 6.65877 10.2574 6.79676L3.97674 -0.984856ZM0.808736 4.22356L0.736237 4.58295L10.5388 6.56044L10.6113 6.20105L0.808736 4.22356ZM0.775281 4.40601C0.59723 5.14868 0.572719 5.9201 0.703591 6.67308L10.5559 4.96068C10.6585 5.55083 10.6392 6.15548 10.4997 6.73738L0.775281 4.40601ZM0.703591 6.67308C0.834446 7.42595 1.11728 8.14125 1.53171 8.77675L9.90801 3.31438C10.2318 3.81088 10.4533 4.37063 10.5559 4.96068L0.703591 6.67308ZM1.53171 8.77675C1.94601 9.41206 2.48245 9.95341 3.10551 10.3719L8.68159 2.0709C9.16606 2.39634 9.58436 2.81807 9.90801 3.31438L1.53171 8.77675ZM3.10551 10.3719C3.7284 10.7904 4.42633 11.0784 5.15715 11.2223L7.08927 1.41072C7.65557 1.52224 8.19729 1.74558 8.68159 2.0709L3.10551 10.3719ZM5.15715 11.2223C5.88787 11.3662 6.64 11.3638 7.36988 11.2152L5.37481 1.41623C5.94039 1.30107 6.52306 1.29922 7.08927 1.41072L5.15715 11.2223ZM7.36988 11.2152C8.09984 11.0666 8.79598 10.774 9.41622 10.3515L3.78651 2.08677C4.26878 1.75826 4.80915 1.53139 5.37481 1.41623L7.36988 11.2152ZM9.41622 10.3515C10.0367 9.92891 10.5696 9.38399 10.9799 8.74587L2.56793 3.3385C2.8884 2.83996 3.30405 2.41541 3.78651 2.08677L9.41622 10.3515ZM10.9799 8.74587C11.3902 8.10753 11.6683 7.39029 11.7942 6.63655L1.9308 4.98929C2.02946 4.39856 2.24732 3.83726 2.56793 3.3385L10.9799 8.74587ZM11.7598 6.82135L11.8335 6.4632L2.039 4.44634L1.96525 4.80449L11.7598 6.82135ZM11.8331 6.46504C11.7173 7.0265 11.3978 7.50664 10.9605 7.82436L5.08268 -0.265839C3.5253 0.865653 2.43232 2.53989 2.03938 4.4445L11.8331 6.46504ZM10.9605 7.82436C10.5253 8.14056 9.99872 8.2792 9.48113 8.22859L10.4542 -1.72395C8.55147 -1.90999 6.63797 -1.39581 5.08268 -0.265839L10.9605 7.82436ZM9.48113 8.22859C8.96306 8.17794 8.46663 7.93864 8.0946 7.53514L15.4465 0.756486C14.1388 -0.66178 12.3575 -1.53785 10.4542 -1.72395L9.48113 8.22859ZM8.0946 7.53514C7.72063 7.12956 7.50145 6.58743 7.50002 6.01122L17.5 5.98632C17.4951 4.03954 16.7561 2.17685 15.4465 0.756486L8.0946 7.53514ZM7.5 5.99877C7.5 5.38241 7.74933 4.80721 8.1675 4.39529L15.1851 11.5194C16.6581 10.0684 17.5 8.08425 17.5 5.99877L7.5 5.99877ZM8.1675 4.39529C8.58305 3.98596 9.13044 3.76947 9.68531 3.76923L9.68969 13.7692C11.7366 13.7683 13.7148 12.9678 15.1851 11.5194L8.1675 4.39529ZM9.6875 3.76923H0.625V13.7692H9.6875V3.76923ZM0.625 3.76923C-0.842035 3.76923 -2.26432 4.34231 -3.32496 5.38664L3.69108 12.5123C2.86486 13.3258 1.76051 13.7692 0.625 13.7692V3.76923ZM-3.32496 5.38664C-4.38823 6.43355 -5 7.87009 -5 9.38462L5 9.38462C5 10.5727 4.51993 11.6962 3.69108 12.5123L-3.32496 5.38664ZM-5 9.38462C-5 10.8991 -4.38823 12.3357 -3.32496 13.3826L3.69108 6.25692C4.51993 7.07302 5 8.19651 5 9.38462L-5 9.38462ZM-3.32496 13.3826C-2.26432 14.4269 -0.842035 15 0.625 15V5C1.76051 5 2.86486 5.44341 3.69108 6.25692L-3.32496 13.3826ZM0.625 15H9.6875V5H0.625V15ZM9.80808 14.9985C12.1481 14.9421 14.3887 13.9876 16.0469 12.315L8.94516 5.2747C9.12203 5.09629 9.34686 5.00676 9.56692 5.00145L9.80808 14.9985ZM16.0469 12.315C17.7075 10.6399 18.651 8.37608 18.6517 6.00276L8.65172 5.99964C8.65181 5.71434 8.76585 5.45557 8.94516 5.2747L16.0469 12.315ZM18.6517 6.00276C18.6525 3.62945 17.7104 1.365 16.0508 -0.311106L8.94474 6.72482C8.76552 6.5438 8.65163 6.28494 8.65172 5.99964L18.6517 6.00276ZM16.0508 -0.311106C14.3937 -1.98475 12.1536 -2.94061 9.8136 -2.99847L9.5664 6.99847C9.34633 6.99303 9.12153 6.90336 8.94474 6.72482L16.0508 -0.311106ZM16.875 2.53846C14.7449 2.53846 12.6868 3.37089 11.1573 4.87684L18.1733 12.0025C17.8159 12.3544 17.3475 12.5385 16.875 12.5385V2.53846ZM11.1573 4.87684C9.62516 6.38537 8.75 8.44802 8.75 10.6154H18.75C18.75 11.1507 18.5333 11.648 18.1733 12.0025L11.1573 4.87684ZM8.75 10.6154C8.75 12.1299 9.36176 13.5664 10.425 14.6134L17.4411 7.48769C18.2699 8.3038 18.75 9.42729 18.75 10.6154H8.75ZM10.425 14.6134C11.4857 15.6577 12.908 16.2308 14.375 16.2308V6.23077C15.5105 6.23077 16.6149 6.67418 17.4411 7.48769L10.425 14.6134ZM14.375 16.2308C15.842 16.2308 17.2643 15.6577 18.325 14.6134L11.3089 7.48769C12.1351 6.67418 13.2395 6.23077 14.375 6.23077V16.2308ZM18.325 14.6134C19.3882 13.5664 20 12.1299 20 10.6154H10C10 9.42729 10.4801 8.3038 11.3089 7.48769L18.325 14.6134ZM20 10.6154C20 11.2566 19.8065 11.8768 19.4533 12.3974L11.1787 6.78208C10.4134 7.90979 10 9.24393 10 10.6154H20ZM19.4533 12.3974C19.1007 12.9169 18.6078 13.3103 18.0457 13.5395L14.2693 4.28C13.0219 4.78871 11.9433 5.65531 11.1787 6.78208L19.4533 12.3974ZM18.0457 13.5395C17.4842 13.7685 16.8708 13.8272 16.2798 13.7115L18.2018 3.89793C16.8833 3.6397 15.5159 3.77157 14.2693 4.28L18.0457 13.5395ZM16.2798 13.7115C15.6884 13.5957 15.1347 13.3079 14.6928 12.8728L21.7088 5.74712C20.7425 4.79565 19.5206 4.15622 18.2018 3.89793L16.2798 13.7115ZM14.6928 12.8728C14.2501 12.4369 13.9396 11.872 13.813 11.2453L23.615 9.26512C23.3437 7.92218 22.676 6.69941 21.7088 5.74712L14.6928 12.8728ZM13.813 11.2453C13.6863 10.6181 13.752 9.96887 13.9985 9.38303L23.2161 13.2607C23.7463 12.0002 23.8864 10.6086 23.615 9.26512L13.813 11.2453ZM13.9985 9.38303C14.2446 8.79803 14.656 8.31058 15.1686 7.97333L20.6648 16.3275C21.7941 15.5845 22.6861 14.5204 23.2161 13.2607L13.9985 9.38303ZM15.1686 7.97333C15.6804 7.63664 16.274 7.46154 16.875 7.46154V17.4615C18.2176 17.4615 19.5363 17.0699 20.6648 16.3275L15.1686 7.97333ZM16.875 7.46154H0.625V17.4615H16.875V7.46154ZM0.625 7.46154C-0.842035 7.46154 -2.26432 8.03462 -3.32496 9.07895L3.69108 16.2046C2.86486 17.0181 1.76051 17.4615 0.625 17.4615V7.46154ZM-3.32496 9.07895C-4.38823 10.1259 -5 11.5624 -5 13.0769H5C5 14.265 4.51993 15.3885 3.69108 16.2046L-3.32496 9.07895ZM-5 13.0769C-5 14.5914 -4.38823 16.028 -3.32496 17.0749L3.69108 9.94923C4.51993 10.7653 5 11.8888 5 13.0769H-5ZM-3.32496 17.0749C-2.26432 18.1192 -0.842035 18.6923 0.625 18.6923V8.69231C1.76051 8.69231 2.86486 9.13572 3.69108 9.94923L-3.32496 17.0749ZM0.625 18.6923H12.8125V8.69231H0.625V18.6923ZM12.8027 18.6923C11.9158 18.6906 11.0505 18.3427 10.4013 17.7009L17.4316 10.5893C16.1975 9.36932 14.538 8.6957 12.8223 8.69232L12.8027 18.6923ZM10.4013 17.7009C9.74948 17.0565 9.36997 16.167 9.37189 15.2237L19.3719 15.244C19.3754 13.4846 18.6683 11.8118 17.4316 10.5893L10.4013 17.7009ZM9.37189 15.2237C9.3738 14.2804 9.7569 13.3926 10.4111 12.751L17.4129 19.8906C18.6544 18.6732 19.3683 17.0033 19.3719 15.244L9.37189 15.2237ZM10.4111 12.751C11.0627 12.1119 11.9292 11.7675 12.8161 11.7692L12.7964 21.7692C14.5121 21.7726 16.1741 21.1055 17.4129 19.8906L10.4111 12.751ZM12.8027 11.7692C13.5894 11.7687 14.3616 12.0418 14.9811 12.5564L8.59149 20.2488C9.7817 21.2374 11.2765 21.7703 12.8098 21.7692L12.8027 11.7692ZM14.9811 12.5564C15.6024 13.0725 16.0326 13.8017 16.1745 14.6231L6.32051 16.3258C6.58766 17.8719 7.39955 19.2587 8.59149 20.2488L14.9811 12.5564ZM16.1774 14.64L16.1711 14.603L6.31138 16.272L6.31763 16.309L16.1774 14.64ZM16.1946 14.7559C16.0906 14.0007 15.8342 13.2772 15.4437 12.6283L6.87554 17.7846C6.57033 17.2774 6.3694 16.7112 6.28794 16.1192L16.1946 14.7559ZM15.4437 12.6283C15.0533 11.9796 14.5379 11.4201 13.9317 10.9797L8.05429 19.0702C7.58273 18.7277 7.18064 18.2916 6.87554 17.7846L15.4437 12.6283ZM13.9317 10.9797C13.3256 10.5395 12.6402 10.2264 11.9169 10.0556L9.61845 19.7879C9.05786 19.6555 8.52568 19.4127 8.05429 19.0702L13.9317 10.9797ZM11.9169 10.0556C11.1937 9.88483 10.4441 9.85885 9.71128 9.97886L11.3274 19.8474C10.7597 19.9404 10.1789 19.9203 9.61845 19.7879L11.9169 10.0556ZM9.71128 9.97886C8.97843 10.0989 8.27382 10.3631 7.63952 10.759L12.935 19.2418C12.442 19.5496 11.8952 19.7544 11.3274 19.8474L9.71128 9.97886ZM7.63952 10.759C7.00504 11.1551 6.45244 11.6759 6.01778 12.2942L14.1983 18.0456C13.8589 18.5284 13.4281 18.934 12.935 19.2418L7.63952 10.759ZM6.01778 12.2942C5.58299 12.9126 5.27582 13.6149 5.11821 14.3603L14.9019 16.4292C14.7783 17.0132 14.5378 17.5627 14.1983 18.0456L6.01778 12.2942ZM5.11821 14.3603C4.96057 15.1058 4.95653 15.8755 5.10637 16.6226L14.9111 14.6562C15.0286 15.2417 15.0254 15.845 14.9019 16.4292L5.11821 14.3603ZM5.07888 16.4739L5.08513 16.5108L14.9449 14.8418L14.9386 14.8049L5.07888 16.4739ZM5.08658 16.5193C5.40043 18.3542 6.36191 20.0039 7.77949 21.1841L14.1775 13.4987C14.5731 13.828 14.8518 14.2979 14.9434 14.8333L5.08658 16.5193ZM7.77949 21.1841C9.19534 22.3628 10.9771 23.0004 12.8072 23L12.8053 13C13.297 12.9999 13.7837 13.1708 14.1775 13.4987L7.77949 21.1841ZM12.8041 23C14.8508 23.0009 16.8295 22.2026 18.3016 20.7564L11.2935 13.6229C11.7086 13.2151 12.2549 12.9998 12.8084 13L12.8041 23ZM18.3016 20.7564C19.7764 19.3075 20.6212 17.325 20.625 15.2398L10.625 15.2218C10.6261 14.6067 10.8758 14.0333 11.2935 13.6229L18.3016 20.7564ZM20.625 15.2308C20.625 13.6205 20.1269 12.1177 19.286 10.881L11.0165 16.5037C10.7731 16.1457 10.625 15.7014 10.625 15.2308H20.625ZM15.1513 18.6923H16.875V8.69231H15.1513V18.6923ZM16.875 18.6923C19.0051 18.6923 21.0632 17.8599 22.5927 16.3539L15.5767 9.22826C15.9341 8.87638 16.4025 8.69231 16.875 8.69231V18.6923ZM22.5927 16.3539C24.1248 14.8454 25 12.7828 25 10.6154H15C15 10.0801 15.2167 9.58273 15.5767 9.22826L22.5927 16.3539ZM25 10.6154C25 8.44802 24.1248 6.38537 22.5927 4.87684L15.5767 12.0025C15.2167 11.648 15 11.1507 15 10.6154H25ZM22.5927 4.87684C21.0632 3.37089 19.0051 2.53846 16.875 2.53846V12.5385C16.4025 12.5385 15.9341 12.3544 15.5767 12.0025L22.5927 4.87684Z" fill="#101828" mask="url(#path-1-inside-1_11_7901)"/>
</symbol>
<symbol id="favorite" width="24" height="22" viewBox="0 0 24 22" fill="none" xmlns="http://www.w3.org/2000/svg">
<path d="M20.8401 3.60999C20.3294 3.099 19.7229 2.69364 19.0555 2.41708C18.388 2.14052 17.6726 1.99817 16.9501 1.99817C16.2276 1.99817 15.5122 2.14052 14.8448 2.41708C14.1773 2.69364 13.5709 3.099 13.0601 3.60999L12.0001 4.66999L10.9401 3.60999C9.90842 2.5783 8.50915 1.9987 7.05012 1.9987C5.59108 1.9987 4.19181 2.5783 3.16012 3.60999C2.12843 4.64169 1.54883 6.04096 1.54883 7.49999C1.54883 8.95903 2.12843 10.3583 3.16012 11.39L4.22012 12.45L12.0001 20.23L19.7801 12.45L20.8401 11.39C21.3511 10.8792 21.7565 10.2728 22.033 9.60535C22.3096 8.93789 22.4519 8.22248 22.4519 7.49999C22.4519 6.77751 22.3096 6.0621 22.033 5.39464C21.7565 4.72718 21.3511 4.12075 20.8401 3.60999Z" fill="#E44848" stroke="#E44848" stroke-width="2.3" stroke-linecap="round" stroke-linejoin="round"/>
</symbol>
<symbol id="close" width="32" height="32" viewBox="0 0 32 32" fill="none" xmlns="http://www.w3.org/2000/svg">
<path d="M24 8L8 24" stroke="#101828" stroke-width="3" stroke-linecap="round" stroke-linejoin="round"/>
<path d="M8 8L24 24" stroke="#101828" stroke-width="3" stroke-linecap="round" stroke-linejoin="round"/>
</symbol>
<symbol id="map" viewBox="0 0 29 32" fill="none">
<path stroke="#101828" stroke-linejoin="round" stroke-linecap="round" stroke-miterlimit="4" stroke-width="2.4" d="M26.4 13.333c0 9.333-12 17.333-12 17.333s-12-8-12-17.333c0-3.183 1.264-6.235 3.515-8.485s5.303-3.515 8.485-3.515c3.183 0 6.235 1.264 8.485 3.515s3.515 5.303 3.515 8.485z"></path>
<path stroke="#101828" stroke-linejoin="round" stroke-linecap="round" stroke-miterlimit="4" stroke-width="2.4" d="M14.4 17.333c2.209 0 4-1.791 4-4s-1.791-4-4-4c-2.209 0-4 1.791-4 4s1.791 4 4 4z"></path>
</symbol>

<symbol id="pet-logo" width="105" height="32" viewBox="0 0 105 32" fill="none" xmlns="http://www.w3.org/2000/svg">
<path d="M9.226 25.42C7.75133 25.42 6.51467 25.07 5.516 24.37C4.51733 23.67 3.766 22.718 3.262 21.514C2.758 20.3007 2.506 18.9427 2.506 17.44C2.506 15.9187 2.758 14.556 3.262 13.352C3.766 12.148 4.50333 11.2007 5.474 10.51C6.454 9.81 7.66267 9.46 9.1 9.46C10.528 9.46 11.7647 9.81 12.81 10.51C13.8647 11.2007 14.6813 12.148 15.26 13.352C15.8387 14.5467 16.128 15.9093 16.128 17.44C16.128 18.952 15.8433 20.31 15.274 21.514C14.7047 22.718 13.902 23.67 12.866 24.37C11.83 25.07 10.6167 25.42 9.226 25.42ZM1.932 31.72V9.88H4.914V20.492H5.334V31.72H1.932ZM8.708 22.396C9.58533 22.396 10.3087 22.1767 10.878 21.738C11.4473 21.2993 11.8673 20.7067 12.138 19.96C12.418 19.204 12.558 18.364 12.558 17.44C12.558 16.5253 12.418 15.6947 12.138 14.948C11.858 14.192 11.424 13.5947 10.836 13.156C10.248 12.708 9.50133 12.484 8.596 12.484C7.73733 12.484 7.03733 12.694 6.496 13.114C5.95467 13.5247 5.55333 14.1033 5.292 14.85C5.04 15.5873 4.914 16.4507 4.914 17.44C4.914 18.42 5.04 19.2833 5.292 20.03C5.55333 20.7767 5.95933 21.36 6.51 21.78C7.07 22.1907 7.80267 22.396 8.708 22.396ZM24.9679 25.42C23.4372 25.42 22.0932 25.0887 20.9359 24.426C19.7786 23.7633 18.8732 22.844 18.2199 21.668C17.5759 20.492 17.2539 19.1387 17.2539 17.608C17.2539 15.956 17.5712 14.5233 18.2059 13.31C18.8406 12.0873 19.7226 11.14 20.8519 10.468C21.9812 9.796 23.2879 9.46 24.7719 9.46C26.3399 9.46 27.6699 9.82867 28.7619 10.566C29.8632 11.294 30.6799 12.3253 31.2119 13.66C31.7439 14.9947 31.9446 16.5673 31.8139 18.378H28.4679V17.146C28.4586 15.5033 28.1692 14.304 27.5999 13.548C27.0306 12.792 26.1346 12.414 24.9119 12.414C23.5306 12.414 22.5039 12.8433 21.8319 13.702C21.1599 14.5513 20.8239 15.7973 20.8239 17.44C20.8239 18.9707 21.1599 20.156 21.8319 20.996C22.5039 21.836 23.4839 22.256 24.7719 22.256C25.6026 22.256 26.3166 22.074 26.9139 21.71C27.5206 21.3367 27.9872 20.8 28.3139 20.1L31.6459 21.108C31.0672 22.4707 30.1712 23.53 28.9579 24.286C27.7539 25.042 26.4239 25.42 24.9679 25.42ZM19.7599 18.378V15.83H30.1619V18.378H19.7599ZM42.6797 25C41.681 25.1867 40.701 25.266 39.7397 25.238C38.7877 25.2193 37.9337 25.0467 37.1777 24.72C36.4217 24.384 35.8477 23.8567 35.4557 23.138C35.1103 22.4847 34.9283 21.8173 34.9097 21.136C34.891 20.4547 34.8817 19.6847 34.8817 18.826V5.68H38.2417V18.63C38.2417 19.2367 38.2463 19.7687 38.2557 20.226C38.2743 20.6833 38.3723 21.0567 38.5497 21.346C38.8857 21.906 39.4223 22.2187 40.1597 22.284C40.897 22.3493 41.737 22.312 42.6797 22.172V25ZM32.1377 12.526V9.88H42.6797V12.526H32.1377ZM45.0909 25V4.42H48.4649V25H45.0909Z" fill="#262626"/>
<path fill-rule="evenodd" clip-rule="evenodd" d="M62.4935 10.4345C60.6541 8.26268 57.5868 7.67848 55.2821 9.66718C52.9775 11.6559 52.653 14.9809 54.4629 17.333C55.6221 18.8395 58.5909 21.6331 60.5756 23.447C61.2351 24.0498 61.5649 24.3512 61.9599 24.4721C62.2995 24.576 62.6875 24.576 63.0271 24.4721C63.4221 24.3512 63.7519 24.0498 64.4114 23.447C66.3961 21.6331 69.3649 18.8395 70.5241 17.333C72.334 14.9809 72.0491 11.635 69.7049 9.66718C67.3606 7.6994 64.3329 8.26268 62.4935 10.4345Z" fill="#F6B83D"/>
<path d="M80.048 25L74.56 9.88H77.934L81.742 20.842L85.536 9.88H88.924L83.436 25H80.048ZM96.6437 25.42C95.113 25.42 93.769 25.0887 92.6117 24.426C91.4544 23.7633 90.549 22.844 89.8957 21.668C89.2517 20.492 88.9297 19.1387 88.9297 17.608C88.9297 15.956 89.247 14.5233 89.8817 13.31C90.5164 12.0873 91.3984 11.14 92.5277 10.468C93.657 9.796 94.9637 9.46 96.4477 9.46C98.0157 9.46 99.3457 9.82867 100.438 10.566C101.539 11.294 102.356 12.3253 102.888 13.66C103.42 14.9947 103.62 16.5673 103.49 18.378H100.144V17.146C100.134 15.5033 99.845 14.304 99.2757 13.548C98.7064 12.792 97.8104 12.414 96.5877 12.414C95.2064 12.414 94.1797 12.8433 93.5077 13.702C92.8357 14.5513 92.4997 15.7973 92.4997 17.44C92.4997 18.9707 92.8357 20.156 93.5077 20.996C94.1797 21.836 95.1597 22.256 96.4477 22.256C97.2784 22.256 97.9924 22.074 98.5897 21.71C99.1964 21.3367 99.663 20.8 99.9897 20.1L103.322 21.108C102.743 22.4707 101.847 23.53 100.634 24.286C99.4297 25.042 98.0997 25.42 96.6437 25.42ZM91.4357 18.378V15.83H101.838V18.378H91.4357Z" fill="#262626"/>
</symbol>

   <symbol id="icon-logo-header" viewBox="0 0 106 32">
      <path fill="#262626" d="M9.169 25.461c-1.466 0-2.694-.348-3.687-1.043s-1.739-1.642-2.24-2.838c-.501-1.206-.751-2.555-.751-4.049 0-1.512.25-2.866.751-4.063s1.234-2.138 2.198-2.824c.974-.696 2.175-1.043 3.603-1.043 1.419 0 2.648.348 3.687 1.043 1.048.686 1.86 1.628 2.435 2.824.575 1.187.863 2.542.863 4.063 0 1.503-.283 2.852-.849 4.049s-1.363 2.143-2.393 2.838c-1.03.696-2.235 1.043-3.617 1.043zM1.92 31.722V10.018h2.963v10.546H5.3v11.158H1.919zm6.734-9.266c.872 0 1.591-.218 2.157-.654s.983-1.025 1.252-1.767c.278-.751.417-1.586.417-2.504 0-.909-.139-1.735-.417-2.477-.278-.751-.71-1.345-1.294-1.781-.584-.445-1.326-.668-2.226-.668-.853 0-1.549.209-2.087.626-.538.408-.937.983-1.197 1.725-.25.733-.376 1.591-.376 2.574 0 .974.125 1.832.376 2.574.26.742.663 1.322 1.21 1.739.557.408 1.285.612 2.184.612zm16.159 3.005c-1.521 0-2.857-.329-4.007-.988s-2.05-1.572-2.699-2.741c-.64-1.169-.96-2.514-.96-4.035 0-1.642.315-3.065.946-4.271.631-1.215 1.507-2.157 2.63-2.824S23.144 9.6 24.619 9.6c1.558 0 2.88.366 3.965 1.099 1.095.723 1.906 1.748 2.435 3.075s.728 2.889.598 4.689h-3.325v-1.224c-.009-1.632-.297-2.824-.863-3.576s-1.456-1.127-2.671-1.127c-1.373 0-2.393.427-3.061 1.28-.668.844-1.002 2.082-1.002 3.715 0 1.521.334 2.699 1.002 3.534s1.642 1.252 2.922 1.252c.826 0 1.535-.181 2.129-.543.603-.371 1.067-.904 1.391-1.6l3.311 1.002c-.575 1.354-1.465 2.407-2.671 3.158a7.31 7.31 0 0 1-3.965 1.127zm-5.176-6.998v-2.532h10.337v2.532H19.637zm22.778 6.58c-.993.185-1.966.264-2.922.237-.946-.018-1.795-.19-2.546-.515a3.528 3.528 0 0 1-1.711-1.572c-.343-.649-.524-1.312-.543-1.99s-.028-1.442-.028-2.296V5.843h3.339v12.87c0 .603.005 1.132.014 1.586.019.455.116.825.292 1.113.334.557.867.867 1.6.932s1.567.028 2.504-.111v2.81zM31.938 12.647v-2.63h10.477v2.63H31.938zm12.873 12.396V4.591h3.353v20.452h-3.353z" style="fill:var(--color1, #262626)"/>
      <path fill="#f6b83d" d="M63.297 9.762c-1.892-2.233-5.046-2.834-7.416-.789s-2.704 5.464-.842 7.883c1.192 1.549 4.245 4.422 6.286 6.287.678.62 1.017.93 1.424 1.054.349.107.748.107 1.097 0 .406-.124.745-.434 1.424-1.054 2.041-1.865 5.094-4.738 6.286-6.287 1.861-2.419 1.568-5.86-.842-7.883s-5.524-1.444-7.416.789z" style="fill:var(--color2, #f6b83d)"/>
      <path fill="#262626" d="m81.141 25.043-5.454-15.026h3.353l3.784 10.894 3.77-10.894h3.367l-5.454 15.026H81.14zm16.493.418c-1.521 0-2.857-.329-4.007-.988s-2.05-1.572-2.699-2.741c-.64-1.169-.96-2.514-.96-4.035 0-1.642.315-3.065.946-4.271.631-1.215 1.507-2.157 2.63-2.824S95.965 9.6 97.44 9.6c1.558 0 2.88.366 3.965 1.099 1.094.723 1.906 1.748 2.435 3.075s.728 2.889.598 4.689h-3.325v-1.224c-.009-1.632-.297-2.824-.863-3.576s-1.456-1.127-2.671-1.127c-1.373 0-2.393.427-3.061 1.28-.668.844-1.002 2.082-1.002 3.715 0 1.521.334 2.699 1.002 3.534s1.642 1.252 2.922 1.252c.825 0 1.535-.181 2.129-.543.603-.371 1.067-.904 1.391-1.6l3.311 1.002c-.575 1.354-1.466 2.407-2.671 3.158a7.31 7.31 0 0 1-3.965 1.127zm-5.176-6.998v-2.532h10.337v2.532H92.458z" style="fill:var(--color1, #262626)"/>
    </symbol>
    <symbol id="icon-logo-main" viewBox="0 0 109 32">
      <path fill="#fff" d="M9.414 25.571c-1.505 0-2.767-.357-3.786-1.071s-1.786-1.686-2.3-2.914c-.514-1.238-.771-2.624-.771-4.157 0-1.552.257-2.943.771-4.171s1.267-2.195 2.257-2.9c1-.714 2.233-1.071 3.7-1.071 1.457 0 2.719.357 3.786 1.071 1.076.705 1.91 1.671 2.5 2.9.59 1.219.886 2.61.886 4.171 0 1.543-.29 2.929-.871 4.157s-1.4 2.2-2.457 2.914-2.295 1.071-3.714 1.071zM1.971 32V9.714h3.043v10.829h.429V32H1.972zm6.915-9.514c.895 0 1.633-.224 2.214-.671s1.01-1.052 1.286-1.814c.286-.771.429-1.629.429-2.571 0-.933-.143-1.781-.429-2.543-.286-.771-.729-1.381-1.329-1.829-.6-.457-1.362-.686-2.286-.686-.876 0-1.59.214-2.143.643-.552.419-.962 1.01-1.229 1.771-.257.752-.386 1.633-.386 2.643 0 1 .129 1.881.386 2.643.267.762.681 1.357 1.243 1.786.571.419 1.319.629 2.243.629zm16.591 3.085c-1.562 0-2.933-.338-4.114-1.014s-2.105-1.614-2.771-2.814c-.657-1.2-.986-2.581-.986-4.143 0-1.686.324-3.148.971-4.386.648-1.248 1.548-2.214 2.7-2.9s2.486-1.029 4-1.029c1.6 0 2.957.376 4.071 1.129 1.124.743 1.957 1.795 2.5 3.157s.748 2.967.614 4.814h-3.414v-1.257c-.009-1.676-.305-2.9-.886-3.671S26.667 12.3 25.419 12.3c-1.41 0-2.457.438-3.143 1.314-.686.867-1.029 2.138-1.029 3.814 0 1.562.343 2.771 1.029 3.629s1.686 1.286 3 1.286c.848 0 1.576-.186 2.186-.557.619-.381 1.095-.929 1.429-1.643l3.4 1.029c-.59 1.39-1.505 2.471-2.743 3.243-1.229.771-2.586 1.157-4.071 1.157zm-5.314-7.185v-2.6h10.614v2.6H20.163zm23.388 6.757c-1.019.19-2.019.271-3 .243-.971-.019-1.843-.195-2.614-.529a3.626 3.626 0 0 1-1.757-1.614c-.352-.667-.538-1.348-.557-2.043s-.029-1.481-.029-2.357V5.429h3.429v13.214c0 .619.005 1.162.014 1.629.019.467.119.848.3 1.143.343.571.89.89 1.643.957s1.609.029 2.571-.114v2.886zM32.794 12.414v-2.7h10.757v2.7H32.794zm13.217 12.729v-21h3.443v21h-3.443z" style="fill:var(--color3, #fff)"/>
      <path fill="#f6b83d" d="M64.565 9.369c-2.011-2.374-5.363-3.013-7.883-.839s-2.874 5.809-.896 8.38c1.267 1.647 4.512 4.701 6.682 6.684.721.659 1.082.988 1.514 1.121a2.03 2.03 0 0 0 1.166 0c.432-.132.793-.462 1.513-1.121 2.17-1.983 5.415-5.037 6.682-6.684 1.979-2.571 1.667-6.229-.895-8.38s-5.873-1.535-7.883.839z" style="fill:var(--color2, #f6b83d)"/>
      <path fill="#fff" d="m83.314 25.143-5.6-15.429h3.443L85.043 20.9l3.871-11.186h3.457l-5.6 15.429h-3.457zm16.935.428c-1.562 0-2.933-.338-4.114-1.014s-2.105-1.614-2.771-2.814c-.657-1.2-.986-2.581-.986-4.143 0-1.686.324-3.148.971-4.386.647-1.248 1.547-2.214 2.7-2.9s2.486-1.029 4-1.029c1.6 0 2.957.376 4.071 1.129 1.124.743 1.957 1.795 2.5 3.157s.747 2.967.614 4.814h-3.414v-1.257c-.01-1.676-.305-2.9-.886-3.671s-1.495-1.157-2.743-1.157c-1.41 0-2.457.438-3.143 1.314-.686.867-1.029 2.138-1.029 3.814 0 1.562.343 2.771 1.029 3.629s1.686 1.286 3 1.286c.847 0 1.576-.186 2.186-.557.619-.381 1.095-.929 1.429-1.643l3.4 1.029c-.59 1.39-1.505 2.471-2.743 3.243-1.229.771-2.586 1.157-4.071 1.157zm-5.315-7.185v-2.6h10.614v2.6H94.934z" style="fill:var(--color3, #fff)"/>
    </symbol>
    <symbol id="icon-logo-white" viewBox="0 0 106 32">
      <path fill="#fff" d="M9.169 25.461c-1.466 0-2.694-.348-3.687-1.043s-1.739-1.642-2.24-2.838c-.501-1.206-.751-2.555-.751-4.049 0-1.512.25-2.866.751-4.063s1.234-2.138 2.198-2.824c.974-.696 2.175-1.043 3.603-1.043 1.419 0 2.648.348 3.687 1.043 1.048.686 1.86 1.628 2.435 2.824.575 1.187.863 2.542.863 4.063 0 1.503-.283 2.852-.849 4.049s-1.363 2.143-2.393 2.838c-1.03.696-2.235 1.043-3.617 1.043zM1.92 31.722V10.018h2.963v10.546H5.3v11.158H1.919zm6.734-9.266c.872 0 1.591-.218 2.157-.654s.983-1.025 1.252-1.767c.278-.751.417-1.586.417-2.504 0-.909-.139-1.735-.417-2.477-.278-.751-.71-1.345-1.294-1.781-.584-.445-1.326-.668-2.226-.668-.853 0-1.549.209-2.087.626-.538.408-.937.983-1.197 1.725-.25.733-.376 1.591-.376 2.574 0 .974.125 1.832.376 2.574.26.742.663 1.322 1.21 1.739.557.408 1.285.612 2.184.612zm16.159 3.005c-1.521 0-2.857-.329-4.007-.988s-2.05-1.572-2.699-2.741c-.64-1.169-.96-2.514-.96-4.035 0-1.642.315-3.065.946-4.271.631-1.215 1.507-2.157 2.63-2.824S23.144 9.6 24.619 9.6c1.558 0 2.88.366 3.965 1.099 1.095.723 1.906 1.748 2.435 3.075s.728 2.889.598 4.689h-3.325v-1.224c-.009-1.632-.297-2.824-.863-3.576s-1.456-1.127-2.671-1.127c-1.373 0-2.393.427-3.061 1.28-.668.844-1.002 2.082-1.002 3.715 0 1.521.334 2.699 1.002 3.534s1.642 1.252 2.922 1.252c.826 0 1.535-.181 2.129-.543.603-.371 1.067-.904 1.391-1.6l3.311 1.002c-.575 1.354-1.465 2.407-2.671 3.158a7.31 7.31 0 0 1-3.965 1.127zm-5.176-6.998v-2.532h10.337v2.532H19.637zm22.778 6.58c-.993.185-1.966.264-2.922.237-.946-.018-1.795-.19-2.546-.515a3.528 3.528 0 0 1-1.711-1.572c-.343-.649-.524-1.312-.543-1.99s-.028-1.442-.028-2.296V5.843h3.339v12.87c0 .603.005 1.132.014 1.586.019.455.116.825.292 1.113.334.557.867.867 1.6.932s1.567.028 2.504-.111v2.81zM31.938 12.647v-2.63h10.477v2.63H31.938zm12.873 12.396V4.591h3.353v20.452h-3.353zM63.297 9.762c-1.892-2.233-5.046-2.834-7.416-.789s-2.704 5.464-.842 7.883c1.192 1.549 4.245 4.422 6.286 6.287.678.62 1.017.93 1.424 1.054.349.107.748.107 1.097 0 .406-.124.745-.434 1.424-1.054 2.041-1.865 5.094-4.738 6.286-6.287 1.861-2.419 1.568-5.86-.842-7.883s-5.524-1.444-7.416.789zM81.141 25.043l-5.454-15.026h3.353l3.784 10.894 3.77-10.894h3.367l-5.454 15.026H81.14zm16.493.418c-1.521 0-2.857-.329-4.007-.988s-2.05-1.572-2.699-2.741c-.64-1.169-.96-2.514-.96-4.035 0-1.642.315-3.065.946-4.271.631-1.215 1.507-2.157 2.63-2.824S95.965 9.6 97.44 9.6c1.558 0 2.88.366 3.965 1.099 1.094.723 1.906 1.748 2.435 3.075s.728 2.889.598 4.689h-3.325v-1.224c-.009-1.632-.297-2.824-.863-3.576s-1.456-1.127-2.671-1.127c-1.373 0-2.393.427-3.061 1.28-.668.844-1.002 2.082-1.002 3.715 0 1.521.334 2.699 1.002 3.534s1.642 1.252 2.922 1.252c.825 0 1.535-.181 2.129-.543.603-.371 1.067-.904 1.391-1.6l3.311 1.002c-.575 1.354-1.466 2.407-2.671 3.158a7.31 7.31 0 0 1-3.965 1.127zm-5.176-6.998v-2.532h10.337v2.532H92.458z" style="fill:var(--color1, #fff)"/>
    </symbol>
    <symbol id="icon-shape" viewBox="0 0 41 32">
      <path fill="#fff" d="M.148 7.435C-.434 2.879 3.711-.858 8.183.191L36.015 6.72a6.585 6.585 0 0 1 4.847 8.15l-3.027 11.048a29.49 29.49 0 0 0-1.048 7.794v9.07c0 4.668-4.723 7.853-9.051 6.105L4.568 39.528a6.583 6.583 0 0 1-4.105-6.513l.755-12.158c.14-2.254.067-4.516-.219-6.756L.148 7.436z" opacity=".1" style="fill:var(--color1, #fff)"/>
    </symbol>
    <symbol id="icon-close" viewBox="0 0 32 32">
      <path stroke-linecap="round" stroke-linejoin="round" stroke-width="3" d="M24 8 8 24M8 8l16 16"/>
    </symbol>
    <symbol id="icon-burger-menu" viewBox="0 0 32 32">
      <path stroke-linecap="round" stroke-linejoin="round" stroke-width="3" d="M4 16h24M4 8h24M4 24h24"/>
    </symbol>
    <symbol id="icon-check" viewBox="0 0 32 32">
      <path fill="none" stroke="#08aa83" stroke-linecap="round" stroke-linejoin="round" stroke-width="2.667" d="M26.667 9.333 12 24l-6.667-6.667" style="stroke: #08aa83"/>
    </symbol>
    <symbol id="icon-x-red" viewBox="0 0 32 32">
      <path fill="none" stroke="#ef2447" stroke-linecap="round" stroke-linejoin="round" stroke-width="3" d="M24 8 8 24M8 8l16 16" style="stroke: #ef2447"/>
    </symbol>
    <symbol id="icon-eye" viewBox="0 0 32 32">
      <path fill="none" stroke="#f6b83d" stroke-linecap="round" stroke-linejoin="round" stroke-width="2.909" d="M1.332 16S6.665 5.333 15.999 5.333 30.666 16 30.666 16s-5.333 10.667-14.667 10.667C6.666 26.667 1.332 16 1.332 16z" style="stroke:var(--color1, #f6b83d)"/>
      <path fill="none" stroke="#f6b83d" stroke-linecap="round" stroke-linejoin="round" stroke-width="2.909" d="M16 20a4 4 0 1 0 0-8 4 4 0 0 0 0 8z" style="stroke:var(--color1, #f6b83d)"/>
    </symbol>
    <symbol id="icon-eye-off" viewBox="0 0 32 32">
      <path fill="none" stroke="#f6b83d" stroke-linecap="round" stroke-linejoin="round" stroke-width="2.667" d="M23.92 23.92A13.43 13.43 0 0 1 16 26.667C6.667 26.667 1.333 16 1.333 16A24.605 24.605 0 0 1 8.08 8.08m5.12-2.427a12.161 12.161 0 0 1 2.8-.32C25.333 5.333 30.667 16 30.667 16a24.646 24.646 0 0 1-2.88 4.253m-8.96-1.426a4.01 4.01 0 0 1-2.855 1.273 3.987 3.987 0 0 1-3.779-2.502 3.995 3.995 0 0 1 .983-4.424M1.333 1.333l29.333 29.333" style="stroke:var(--color1, #f6b83d)"/>
    </symbol>
    <symbol id="icon-search" viewBox="0 0 32 32">
      <path stroke-linecap="round" stroke-linejoin="round" stroke-width="3.556" d="M14.667 25.333c5.891 0 10.667-4.776 10.667-10.667S20.558 3.999 14.667 3.999 4 8.775 4 14.666s4.776 10.667 10.667 10.667zM28.001 28l-5.8-5.8"/>
    </symbol>
    <symbol id="icon-left" viewBox="0 0 32 32">
      <path d="M14.134 16.947a1.334 1.334 0 0 1 0-1.894l6.12-6.107a1.334 1.334 0 1 0-1.88-1.894l-6.12 6.12a4.001 4.001 0 0 0 0 5.654l6.12 6.12a1.337 1.337 0 0 0 2.172-.434 1.331 1.331 0 0 0-.292-1.46l-6.12-6.107z"/>
    </symbol>
    <symbol id="icon-right" viewBox="0 0 32 32">
      <path d="M17.866 16.947a1.344 1.344 0 0 0 .395-.947 1.331 1.331 0 0 0-.395-.947l-6.12-6.107a1.334 1.334 0 1 1 1.88-1.894l6.12 6.12a4.001 4.001 0 0 1 0 5.654l-6.12 6.12a1.337 1.337 0 0 1-2.172-.434 1.331 1.331 0 0 1 .292-1.46l6.12-6.107z"/>
    </symbol>
    <symbol id="icon-star" viewBox="0 0 32 32">
      <path fill="#ffc531" stroke="#ffc531" stroke-width="2.4" d="M12.4 9.394 16 2.572l3.6 6.822a2.2 2.2 0 0 0 1.571 1.141l7.601 1.315-5.376 5.532a2.2 2.2 0 0 0-.6 1.846l1.098 7.635-6.922-3.404a2.199 2.199 0 0 0-1.941 0l-6.922 3.404 1.098-7.635a2.2 2.2 0 0 0-.6-1.846L3.231 11.85l7.601-1.315a2.202 2.202 0 0 0 1.571-1.141zm16.635 2.185zM7.767 27.031z" style="fill:var(--color1, #ffc531);stroke:var(--color1, #ffc531)"/>
    </symbol>
    <symbol id="icon-starGray" viewBox="0 0 32 32">
      <path fill="#f4f4f4" stroke="#f4f4f4" stroke-width="2.4" d="M12.4 9.394 16 2.572l3.6 6.822a2.2 2.2 0 0 0 1.571 1.141l7.601 1.315-5.376 5.532a2.2 2.2 0 0 0-.6 1.846l1.098 7.635-6.922-3.404a2.199 2.199 0 0 0-1.941 0l-6.922 3.404 1.098-7.635a2.2 2.2 0 0 0-.6-1.846L3.231 11.85l7.601-1.315a2.202 2.202 0 0 0 1.571-1.141zm16.635 2.185zM7.767 27.031z" style="fill:var(--color1, #f4f4f4);stroke:var(--color1, #f4f4f4)"/>
    </symbol>
    <symbol id="icon-heart" viewBox="0 0 32 32">
      <path stroke-linecap="round" stroke-linejoin="round" stroke-width="2.667" d="M27.784 6.147a7.345 7.345 0 0 0-5.187-2.15 7.33 7.33 0 0 0-5.187 2.15L15.997 7.56l-1.413-1.413a7.333 7.333 0 0 0-10.374 0 7.333 7.333 0 0 0 0 10.374l11.787 11.787 11.787-11.787a7.345 7.345 0 0 0 2.15-5.187 7.33 7.33 0 0 0-2.15-5.187z"/>
    </symbol>
    <symbol id="icon-plus" viewBox="0 0 32 32">
      <path stroke-linecap="round" stroke-linejoin="round" stroke-width="2.667" d="M16 6.667v18.667M6.667 16h18.667" />
    </symbol>
    <symbol id="icon-trash" viewBox="0 0 32 32">
      <path stroke-linecap="round" stroke-linejoin="round" stroke-width="2.4" d="M4 8h24M25.335 8v18.667a2.668 2.668 0 0 1-2.667 2.667H9.335a2.668 2.668 0 0 1-2.667-2.667V8m4 0V5.333a2.668 2.668 0 0 1 2.667-2.667h5.333a2.67 2.67 0 0 1 2.667 2.667V8M13.332 14.667v8M18.668 14.667v8"/>
    </symbol>
    <symbol id="icon-pencil" viewBox="0 0 32 32">
      <path stroke-linecap="round" stroke-linejoin="round" stroke-width="2.667" d="M22.667 4a3.766 3.766 0 0 1 4.109-.817 3.766 3.766 0 0 1 2.04 4.926 3.766 3.766 0 0 1-.817 1.223l-18 18-7.333 2 2-7.333 18-18z" />
    </symbol>
    <symbol id="icon-user" viewBox="0 0 29 32">
      <path stroke-linecap="round" stroke-linejoin="round" stroke-width="1.454" d="M14.545 18.182c-3.843 0-7.26 1.855-9.435 4.734-.468.62-.702.93-.695 1.348.006.323.209.732.464.931.329.259.786.259 1.699.259h15.934c.913 0 1.37 0 1.699-.259.255-.2.458-.608.464-.931.008-.419-.226-.729-.695-1.348-2.175-2.879-5.593-4.734-9.435-4.734zM14.545 14.545a5.455 5.455 0 1 0 0-10.91 5.455 5.455 0 0 0 0 10.91z" />
    </symbol>
    <symbol id="icon-upload-cloud" viewBox="0 0 32 32">
      <path fill="none" stroke="#f6b83d" stroke-linecap="round" stroke-linejoin="round" stroke-width="2.311" d="M16 16v12M27.187 24.52a6.671 6.671 0 0 0 3.27-7.497A6.669 6.669 0 0 0 24.001 12h-1.68a10.659 10.659 0 0 0-10.72-7.99A10.657 10.657 0 0 0 3.38 8.378a10.661 10.661 0 0 0-1.66 9.159 10.656 10.656 0 0 0 2.281 4.196" style="stroke:var(--color1, #f6b83d)"/>
      <path fill="none" stroke="#f6b83d" stroke-linecap="round" stroke-linejoin="round" stroke-width="2.311" d="M21.333 21.333 16 16l-5.333 5.333" style="stroke:var(--color1, #f6b83d)"/>
    </symbol>
    <symbol id="icon-female" viewBox="0 0 32 32">
      <path stroke-linecap="round" stroke-linejoin="round" stroke-width="2.4" d="M16.001 17.333a6.667 6.667 0 1 0 0-13.334 6.667 6.667 0 0 0 0 13.334zm0 0V28m-4-4h8"/>
    </symbol>
    <symbol id="icon-male" viewBox="0 0 18 32">
      <path stroke-linecap="round" stroke-linejoin="round" stroke-width="2.667" d="M8.89 14.519a7.407 7.407 0 1 0 0 14.814 7.407 7.407 0 1 0 0-14.814zm0 0V2.667m0 0 5.926 5.926M8.89 2.667 2.964 8.593"/>
    </symbol>
    <symbol id="icon-footprint" viewBox="0 0 32 32">
      <path fill="#f6b83d" d="M12.5 5c-1.07 0-2.002.608-2.594 1.438S9 8.34 9 9.5s.314 2.233.906 3.063S11.43 14 12.5 14c1.07 0 2.002-.608 2.594-1.438S16 10.66 16 9.5s-.314-2.233-.906-3.063S13.57 5 12.5 5zM16 9.5c0 1.16.314 2.233.906 3.063S18.431 14 19.5 14c1.07 0 2.002-.608 2.594-1.438S23 10.66 23 9.5s-.314-2.233-.906-3.063S20.57 5 19.5 5c-1.07 0-2.002.608-2.594 1.438S16 8.34 16 9.5zM12.5 7c.312 0 .656.156.97.594.31.437.53 1.133.53 1.906s-.22 1.47-.53 1.906c-.314.438-.658.594-.97.594s-.656-.156-.97-.594c-.31-.437-.53-1.133-.53-1.906s.22-1.47.53-1.906c.314-.438.658-.594.97-.594zm7 0c.312 0 .656.156.97.594.31.437.53 1.133.53 1.906s-.22 1.47-.53 1.906c-.314.438-.658.594-.97.594s-.656-.156-.97-.594c-.31-.437-.53-1.133-.53-1.906s.22-1.47.53-1.906c.314-.438.658-.594.97-.594zm-12 5c-1.07 0-2.002.608-2.594 1.438S4 15.34 4 16.5s.314 2.233.906 3.063S6.43 21 7.5 21c1.07 0 2.002-.608 2.594-1.438S11 17.66 11 16.5s-.314-2.233-.906-3.063S8.57 12 7.5 12zm17 0c-1.07 0-2.002.608-2.594 1.438S21 15.34 21 16.5s.314 2.233.906 3.063S23.43 21 24.5 21c1.07 0 2.002-.608 2.594-1.438S28 17.66 28 16.5s-.314-2.233-.906-3.063S25.57 12 24.5 12zm-17 2c.312 0 .656.156.97.594.31.437.53 1.133.53 1.906s-.22 1.47-.53 1.906c-.314.438-.658.594-.97.594s-.656-.156-.97-.594C6.22 17.97 6 17.273 6 16.5s.22-1.47.53-1.906c.314-.438.658-.594.97-.594zm17 0c.312 0 .656.156.97.594.31.437.53 1.133.53 1.906s-.22 1.47-.53 1.906c-.314.438-.658.594-.97.594s-.656-.156-.97-.594c-.31-.437-.53-1.133-.53-1.906s.22-1.47.53-1.906c.314-.438.658-.594.97-.594zM16 16c-1.333 0-2.263.865-2.72 1.625-.454.76-.734 1.392-1 1.656-.153.157-1.118.52-2.124 1.033-.503.257-1.01.6-1.437 1.125-.43.525-.72 1.25-.72 2.063 0 1.92 1.58 3.5 3.5 3.5.866 0 1.77-.28 2.655-.53C15.043 26.216 16 26 16 26s.957.216 1.844.47c.886.25 1.79.53 2.656.53 1.92 0 3.5-1.58 3.5-3.5 0-.794-.293-1.52-.72-2.03-.425-.513-.937-.83-1.436-1.095-1-.53-1.983-.95-2.125-1.094-.24-.237-.51-.89-.97-1.654C18.29 16.86 17.34 16 16 16zm0 2c.66 0 .733.16 1.03.656.3.495.524 1.336 1.25 2.063.825.82 1.867 1 2.626 1.404.38.202.67.417.844.625.173.207.25.396.25.75 0 .84-.66 1.5-1.5 1.5-.29 0-1.224-.22-2.094-.47-.87-.247-1.59-.53-2.406-.53s-1.536.283-2.406.53c-.87.25-1.804.47-2.094.47-.84 0-1.5-.66-1.5-1.5 0-.403.084-.61.25-.814.166-.203.472-.404.844-.593.744-.38 1.78-.53 2.625-1.375.733-.737.953-1.605 1.25-2.095.292-.49.362-.625 1.03-.625L16 18z" style="fill:var(--color3, #f6b83d)"/>
    </symbol>
    <symbol id="icon-sex" viewBox="0 0 32 32">
      <path d="M11.694 10.327a4.665 4.665 0 1 0 2.913 3.635.654.654 0 0 1 .313-.672.653.653 0 0 1 .504-.078.654.654 0 0 1 .412.302.653.653 0 0 1 .089.244 5.993 5.993 0 0 1-3.514 6.403 5.998 5.998 0 1 1-.232-11.077.665.665 0 0 1 .433.609.669.669 0 0 1-.403.628.665.665 0 0 1-.515.006z"/>
      <path d="M9.331 26v-5.331a.665.665 0 1 1 1.332 0V26a.665.665 0 1 1-1.332 0z"/>
      <path d="M7.331 22.668a.665.665 0 0 1 .666-.666h3.998a.665.665 0 1 1 0 1.332H7.997a.665.665 0 0 1-.666-.666zm11.93-12.486a4.665 4.665 0 0 0-5.9 5.04.67.67 0 0 1-.335.663.665.665 0 0 1-.989-.506 5.997 5.997 0 1 1 3.582 4.801.673.673 0 0 1-.355-.366.668.668 0 0 1 .883-.859 4.66 4.66 0 0 0 6.243-2.723 4.667 4.667 0 0 0-3.127-6.05z"/>
      <path d="M21.855 11.477a.665.665 0 0 1 0-.942l4.998-4.998a.658.658 0 0 1 .473-.203.655.655 0 0 1 .477.196c.063.063.112.137.145.219s.05.17.05.258a.669.669 0 0 1-.203.473l-4.998 4.998a.665.665 0 0 1-.942 0z"/>
      <path d="M27.273 10.007a.669.669 0 0 1-.657-.675l.033-2.648-2.648.033a.67.67 0 0 1-.675-.658.67.67 0 0 1 .658-.675L28 5.333l-.051 4.016a.669.669 0 0 1-.675.657z"/>
    </symbol>
     <symbol id="icon-calendar" viewBox="0 0 32 32">
      <path stroke-linecap="round" stroke-linejoin="round" stroke-width="2.667" d="M25.333 5.333H6.666A2.667 2.667 0 0 0 3.999 8v18.667a2.667 2.667 0 0 0 2.667 2.667h18.667A2.667 2.667 0 0 0 28 26.667V8a2.667 2.667 0 0 0-2.667-2.667zM21.333 2.667V8M10.667 2.667V8M4 13.333h24"/>
    </symbol>
     <symbol id="icon-four" viewBox="0 0 23 32">
      <path fill="#fff" d="M13.815 32v-4.943H0v-5.606L10.019.221h6.886L6.886 21.451h6.93v-7.945h6.091v7.945h2.825v5.606h-2.825V32h-6.091z" style="fill:var(--color1, #fff)"/>
    </symbol>
     <symbol id="icon-shape-pc" viewBox="0 0 28 32">
      <path fill="#fff" d="M.093 6.19C-.39 2.394 3.064-.717 6.789.159L24.017 4.21a5.484 5.484 0 0 1 4.035 6.784l-2.176 7.961a11.93 11.93 0 0 0-.422 3.144v6.182c0 3.89-3.937 6.543-7.543 5.083L3.605 27.571A5.484 5.484 0 0 1 .19 22.149l.549-8.856c.056-.909.027-1.822-.088-2.725L.093 6.19z" opacity=".1" style="fill:var(--color1, #fff)"/>
    </symbol>
</svg>
